G75*
%MOIN*%
%OFA0B0*%
%FSLAX24Y24*%
%IPPOS*%
%LPD*%
%AMOC8*
5,1,8,0,0,1.08239X$1,22.5*
%
%ADD10C,0.0080*%
%ADD11C,0.0060*%
%ADD12C,0.0040*%
%ADD13C,0.0300*%
%ADD14R,0.0200X0.0300*%
%ADD15R,0.0400X0.0300*%
%ADD16R,0.0300X0.0200*%
%ADD17R,0.0300X0.0400*%
%ADD18C,0.0100*%
%ADD19C,0.0020*%
%ADD20C,0.0050*%
%ADD21R,0.0250X0.0300*%
%ADD22R,0.1100X0.0500*%
%ADD23C,0.0120*%
D10*
X021947Y029640D02*
X021947Y030561D01*
X021640Y030561D02*
X022254Y030561D01*
X022561Y030561D02*
X022561Y029640D01*
X023175Y029640D01*
X023482Y029640D02*
X023482Y030254D01*
X023789Y030561D01*
X024095Y030254D01*
X024095Y029640D01*
X024402Y029640D02*
X024402Y030561D01*
X024709Y030254D01*
X025016Y030561D01*
X025016Y029640D01*
X024095Y030100D02*
X023482Y030100D01*
X022868Y030100D02*
X022561Y030100D01*
X022561Y030561D02*
X023175Y030561D01*
X026244Y030407D02*
X026397Y030561D01*
X026704Y030561D01*
X026858Y030407D01*
X026858Y030254D01*
X026244Y029640D01*
X026858Y029640D01*
X027165Y029793D02*
X027779Y030407D01*
X027779Y029793D01*
X027625Y029640D01*
X027318Y029640D01*
X027165Y029793D01*
X027165Y030407D01*
X027318Y030561D01*
X027625Y030561D01*
X027779Y030407D01*
D11*
X003100Y003600D02*
X003102Y003644D01*
X003108Y003688D01*
X003118Y003731D01*
X003131Y003773D01*
X003148Y003814D01*
X003169Y003853D01*
X003193Y003890D01*
X003220Y003925D01*
X003250Y003957D01*
X003283Y003987D01*
X003319Y004013D01*
X003356Y004037D01*
X003396Y004056D01*
X003437Y004073D01*
X003480Y004085D01*
X003523Y004094D01*
X003567Y004099D01*
X003611Y004100D01*
X003655Y004097D01*
X003699Y004090D01*
X003742Y004079D01*
X003784Y004065D01*
X003824Y004047D01*
X003863Y004025D01*
X003899Y004001D01*
X003933Y003973D01*
X003965Y003942D01*
X003994Y003908D01*
X004020Y003872D01*
X004042Y003834D01*
X004061Y003794D01*
X004076Y003752D01*
X004088Y003710D01*
X004096Y003666D01*
X004100Y003622D01*
X004100Y003578D01*
X004096Y003534D01*
X004088Y003490D01*
X004076Y003448D01*
X004061Y003406D01*
X004042Y003366D01*
X004020Y003328D01*
X003994Y003292D01*
X003965Y003258D01*
X003933Y003227D01*
X003899Y003199D01*
X003863Y003175D01*
X003824Y003153D01*
X003784Y003135D01*
X003742Y003121D01*
X003699Y003110D01*
X003655Y003103D01*
X003611Y003100D01*
X003567Y003101D01*
X003523Y003106D01*
X003480Y003115D01*
X003437Y003127D01*
X003396Y003144D01*
X003356Y003163D01*
X003319Y003187D01*
X003283Y003213D01*
X003250Y003243D01*
X003220Y003275D01*
X003193Y003310D01*
X003169Y003347D01*
X003148Y003386D01*
X003131Y003427D01*
X003118Y003469D01*
X003108Y003512D01*
X003102Y003556D01*
X003100Y003600D01*
X000850Y003600D02*
X000852Y003705D01*
X000858Y003809D01*
X000868Y003913D01*
X000882Y004017D01*
X000900Y004120D01*
X000921Y004223D01*
X000947Y004324D01*
X000977Y004425D01*
X001010Y004524D01*
X001047Y004622D01*
X001088Y004719D01*
X001132Y004813D01*
X001180Y004906D01*
X001232Y004998D01*
X001287Y005087D01*
X001345Y005174D01*
X001406Y005258D01*
X001471Y005341D01*
X001539Y005421D01*
X001610Y005498D01*
X001683Y005572D01*
X001760Y005644D01*
X001839Y005712D01*
X001921Y005778D01*
X002005Y005840D01*
X002091Y005899D01*
X002180Y005955D01*
X002271Y006007D01*
X002363Y006056D01*
X002458Y006101D01*
X002554Y006143D01*
X002651Y006181D01*
X002750Y006215D01*
X002850Y006246D01*
X002952Y006272D01*
X003054Y006295D01*
X003157Y006314D01*
X003261Y006329D01*
X003365Y006340D01*
X003469Y006347D01*
X003574Y006350D01*
X003679Y006349D01*
X003783Y006344D01*
X003887Y006335D01*
X003991Y006322D01*
X004095Y006305D01*
X004197Y006284D01*
X004299Y006260D01*
X004400Y006231D01*
X004499Y006199D01*
X004598Y006163D01*
X004695Y006123D01*
X004790Y006079D01*
X004883Y006032D01*
X004975Y005982D01*
X005065Y005927D01*
X005152Y005870D01*
X005238Y005809D01*
X005320Y005745D01*
X005401Y005678D01*
X005479Y005608D01*
X005554Y005535D01*
X005626Y005459D01*
X005695Y005381D01*
X005762Y005300D01*
X005825Y005216D01*
X005885Y005131D01*
X005941Y005042D01*
X005995Y004952D01*
X006044Y004860D01*
X006090Y004766D01*
X006133Y004670D01*
X006172Y004573D01*
X006207Y004475D01*
X006239Y004375D01*
X006266Y004274D01*
X006290Y004172D01*
X006310Y004069D01*
X006326Y003965D01*
X006338Y003861D01*
X006346Y003757D01*
X006350Y003652D01*
X006350Y003548D01*
X006346Y003443D01*
X006338Y003339D01*
X006326Y003235D01*
X006310Y003131D01*
X006290Y003028D01*
X006266Y002926D01*
X006239Y002825D01*
X006207Y002725D01*
X006172Y002627D01*
X006133Y002530D01*
X006090Y002434D01*
X006044Y002340D01*
X005995Y002248D01*
X005941Y002158D01*
X005885Y002069D01*
X005825Y001984D01*
X005762Y001900D01*
X005695Y001819D01*
X005626Y001741D01*
X005554Y001665D01*
X005479Y001592D01*
X005401Y001522D01*
X005320Y001455D01*
X005238Y001391D01*
X005152Y001330D01*
X005065Y001273D01*
X004975Y001218D01*
X004883Y001168D01*
X004790Y001121D01*
X004695Y001077D01*
X004598Y001037D01*
X004499Y001001D01*
X004400Y000969D01*
X004299Y000940D01*
X004197Y000916D01*
X004095Y000895D01*
X003991Y000878D01*
X003887Y000865D01*
X003783Y000856D01*
X003679Y000851D01*
X003574Y000850D01*
X003469Y000853D01*
X003365Y000860D01*
X003261Y000871D01*
X003157Y000886D01*
X003054Y000905D01*
X002952Y000928D01*
X002850Y000954D01*
X002750Y000985D01*
X002651Y001019D01*
X002554Y001057D01*
X002458Y001099D01*
X002363Y001144D01*
X002271Y001193D01*
X002180Y001245D01*
X002091Y001301D01*
X002005Y001360D01*
X001921Y001422D01*
X001839Y001488D01*
X001760Y001556D01*
X001683Y001628D01*
X001610Y001702D01*
X001539Y001779D01*
X001471Y001859D01*
X001406Y001942D01*
X001345Y002026D01*
X001287Y002113D01*
X001232Y002202D01*
X001180Y002294D01*
X001132Y002387D01*
X001088Y002481D01*
X001047Y002578D01*
X001010Y002676D01*
X000977Y002775D01*
X000947Y002876D01*
X000921Y002977D01*
X000900Y003080D01*
X000882Y003183D01*
X000868Y003287D01*
X000858Y003391D01*
X000852Y003495D01*
X000850Y003600D01*
X004600Y004800D02*
X004602Y004844D01*
X004608Y004888D01*
X004618Y004931D01*
X004631Y004973D01*
X004648Y005014D01*
X004669Y005053D01*
X004693Y005090D01*
X004720Y005125D01*
X004750Y005157D01*
X004783Y005187D01*
X004819Y005213D01*
X004856Y005237D01*
X004896Y005256D01*
X004937Y005273D01*
X004980Y005285D01*
X005023Y005294D01*
X005067Y005299D01*
X005111Y005300D01*
X005155Y005297D01*
X005199Y005290D01*
X005242Y005279D01*
X005284Y005265D01*
X005324Y005247D01*
X005363Y005225D01*
X005399Y005201D01*
X005433Y005173D01*
X005465Y005142D01*
X005494Y005108D01*
X005520Y005072D01*
X005542Y005034D01*
X005561Y004994D01*
X005576Y004952D01*
X005588Y004910D01*
X005596Y004866D01*
X005600Y004822D01*
X005600Y004778D01*
X005596Y004734D01*
X005588Y004690D01*
X005576Y004648D01*
X005561Y004606D01*
X005542Y004566D01*
X005520Y004528D01*
X005494Y004492D01*
X005465Y004458D01*
X005433Y004427D01*
X005399Y004399D01*
X005363Y004375D01*
X005324Y004353D01*
X005284Y004335D01*
X005242Y004321D01*
X005199Y004310D01*
X005155Y004303D01*
X005111Y004300D01*
X005067Y004301D01*
X005023Y004306D01*
X004980Y004315D01*
X004937Y004327D01*
X004896Y004344D01*
X004856Y004363D01*
X004819Y004387D01*
X004783Y004413D01*
X004750Y004443D01*
X004720Y004475D01*
X004693Y004510D01*
X004669Y004547D01*
X004648Y004586D01*
X004631Y004627D01*
X004618Y004669D01*
X004608Y004712D01*
X004602Y004756D01*
X004600Y004800D01*
X009450Y003100D02*
X014750Y003100D01*
X014750Y023100D01*
X012450Y023100D01*
X012448Y023061D01*
X012442Y023022D01*
X012433Y022984D01*
X012420Y022947D01*
X012403Y022911D01*
X012383Y022878D01*
X012359Y022846D01*
X012333Y022817D01*
X012304Y022791D01*
X012272Y022767D01*
X012239Y022747D01*
X012203Y022730D01*
X012166Y022717D01*
X012128Y022708D01*
X012089Y022702D01*
X012050Y022700D01*
X012011Y022702D01*
X011972Y022708D01*
X011934Y022717D01*
X011897Y022730D01*
X011861Y022747D01*
X011828Y022767D01*
X011796Y022791D01*
X011767Y022817D01*
X011741Y022846D01*
X011717Y022878D01*
X011697Y022911D01*
X011680Y022947D01*
X011667Y022984D01*
X011658Y023022D01*
X011652Y023061D01*
X011650Y023100D01*
X009450Y023100D01*
X009450Y003100D01*
X002600Y009850D02*
X002350Y009600D01*
X001850Y009600D01*
X001600Y009850D01*
X001600Y010350D01*
X001850Y010600D01*
X001600Y010850D01*
X001600Y011350D01*
X001850Y011600D01*
X002350Y011600D01*
X002600Y011350D01*
X002600Y010850D01*
X002350Y010600D01*
X002600Y010350D01*
X002600Y009850D01*
X002350Y010600D02*
X001850Y010600D01*
X001850Y011600D02*
X001600Y011850D01*
X001600Y012350D01*
X001850Y012600D01*
X001600Y012850D01*
X001600Y013350D01*
X001850Y013600D01*
X001600Y013850D01*
X001600Y014350D01*
X001850Y014600D01*
X002350Y014600D01*
X002600Y014350D01*
X002600Y013850D01*
X002350Y013600D01*
X002600Y013350D01*
X002600Y012850D01*
X002350Y012600D01*
X002600Y012350D01*
X002600Y011850D01*
X002350Y011600D01*
X002350Y012600D02*
X001850Y012600D01*
X001850Y013600D02*
X002350Y013600D01*
X002350Y014600D02*
X002600Y014850D01*
X002600Y015350D01*
X002350Y015600D01*
X002600Y015850D01*
X002600Y016350D01*
X002350Y016600D01*
X002600Y016850D01*
X002600Y017350D01*
X002350Y017600D01*
X001850Y017600D01*
X001600Y017350D01*
X001600Y016850D01*
X001850Y016600D01*
X002350Y016600D01*
X001850Y016600D02*
X001600Y016350D01*
X001600Y015850D01*
X001850Y015600D01*
X002350Y015600D01*
X001850Y015600D02*
X001600Y015350D01*
X001600Y014850D01*
X001850Y014600D01*
X001850Y017600D02*
X001600Y017850D01*
X001600Y018350D01*
X001850Y018600D01*
X001600Y018850D01*
X001600Y019350D01*
X001850Y019600D01*
X002350Y019600D01*
X002600Y019350D01*
X002600Y018850D01*
X002350Y018600D01*
X002600Y018350D01*
X002600Y017850D01*
X002350Y017600D01*
X002350Y018600D02*
X001850Y018600D01*
X001620Y023960D02*
X001649Y023996D01*
X001681Y024030D01*
X001716Y024061D01*
X001752Y024089D01*
X001791Y024114D01*
X001832Y024137D01*
X001874Y024156D01*
X001917Y024172D01*
X001962Y024184D01*
X002008Y024193D01*
X002054Y024198D01*
X002100Y024200D01*
X001626Y023232D02*
X001656Y023197D01*
X001687Y023164D01*
X001722Y023134D01*
X001758Y023107D01*
X001796Y023083D01*
X001836Y023061D01*
X001878Y023043D01*
X001921Y023027D01*
X001965Y023015D01*
X002009Y023007D01*
X002055Y023002D01*
X002100Y023000D01*
X002588Y023949D02*
X002559Y023986D01*
X002527Y024021D01*
X002492Y024054D01*
X002455Y024084D01*
X002416Y024110D01*
X002375Y024133D01*
X002331Y024154D01*
X002287Y024170D01*
X002241Y024183D01*
X002195Y024192D01*
X002147Y024198D01*
X002100Y024200D01*
X002574Y023232D02*
X002544Y023197D01*
X002513Y023164D01*
X002478Y023134D01*
X002442Y023107D01*
X002404Y023083D01*
X002364Y023061D01*
X002322Y023043D01*
X002279Y023027D01*
X002235Y023015D01*
X002191Y023007D01*
X002145Y023002D01*
X002100Y023000D01*
X002100Y025650D02*
X001100Y025650D01*
X001083Y025652D01*
X001066Y025656D01*
X001050Y025663D01*
X001036Y025673D01*
X001023Y025686D01*
X001013Y025700D01*
X001006Y025716D01*
X001002Y025733D01*
X001000Y025750D01*
X001000Y028450D01*
X001002Y028467D01*
X001006Y028484D01*
X001013Y028500D01*
X001023Y028514D01*
X001036Y028527D01*
X001050Y028537D01*
X001066Y028544D01*
X001083Y028548D01*
X001100Y028550D01*
X002100Y028550D01*
X002117Y028548D01*
X002134Y028544D01*
X002150Y028537D01*
X002164Y028527D01*
X002177Y028514D01*
X002187Y028500D01*
X002194Y028484D01*
X002198Y028467D01*
X002200Y028450D01*
X002200Y025750D01*
X002198Y025733D01*
X002194Y025716D01*
X002187Y025700D01*
X002177Y025686D01*
X002164Y025673D01*
X002150Y025663D01*
X002134Y025656D01*
X002117Y025652D01*
X002100Y025650D01*
X001600Y026500D02*
X001600Y026980D01*
X001600Y027230D02*
X001600Y027700D01*
X003500Y028450D02*
X003500Y025750D01*
X003502Y025733D01*
X003506Y025716D01*
X003513Y025700D01*
X003523Y025686D01*
X003536Y025673D01*
X003550Y025663D01*
X003566Y025656D01*
X003583Y025652D01*
X003600Y025650D01*
X004600Y025650D01*
X004617Y025652D01*
X004634Y025656D01*
X004650Y025663D01*
X004664Y025673D01*
X004677Y025686D01*
X004687Y025700D01*
X004694Y025716D01*
X004698Y025733D01*
X004700Y025750D01*
X004700Y028450D01*
X004698Y028467D01*
X004694Y028484D01*
X004687Y028500D01*
X004677Y028514D01*
X004664Y028527D01*
X004650Y028537D01*
X004634Y028544D01*
X004617Y028548D01*
X004600Y028550D01*
X003600Y028550D01*
X003583Y028548D01*
X003566Y028544D01*
X003550Y028537D01*
X003536Y028527D01*
X003523Y028514D01*
X003513Y028500D01*
X003506Y028484D01*
X003502Y028467D01*
X003500Y028450D01*
X004100Y027700D02*
X004100Y027230D01*
X004100Y026980D02*
X004100Y026500D01*
X003650Y030000D02*
X003600Y030000D01*
X003600Y030200D01*
X003650Y030200D01*
X004550Y030200D02*
X004600Y030200D01*
X004600Y030000D01*
X004550Y030000D01*
X002100Y030000D02*
X002050Y030000D01*
X002100Y030000D02*
X002100Y030200D01*
X002050Y030200D01*
X001150Y030200D02*
X001100Y030200D01*
X001100Y030000D01*
X001150Y030000D01*
X009100Y030150D02*
X009100Y026050D01*
X014000Y026050D01*
X014000Y026400D01*
X014600Y026400D01*
X014600Y026050D01*
X015350Y026050D01*
X015350Y030150D01*
X014600Y030150D01*
X014600Y029800D01*
X014000Y029800D01*
X014000Y030150D01*
X009100Y030150D01*
X013290Y028100D02*
X013292Y028153D01*
X013298Y028206D01*
X013308Y028258D01*
X013322Y028309D01*
X013339Y028359D01*
X013360Y028408D01*
X013385Y028455D01*
X013413Y028500D01*
X013445Y028543D01*
X013480Y028583D01*
X013517Y028620D01*
X013557Y028655D01*
X013600Y028687D01*
X013645Y028715D01*
X013692Y028740D01*
X013741Y028761D01*
X013791Y028778D01*
X013842Y028792D01*
X013894Y028802D01*
X013947Y028808D01*
X014000Y028810D01*
X014053Y028808D01*
X014106Y028802D01*
X014158Y028792D01*
X014209Y028778D01*
X014259Y028761D01*
X014308Y028740D01*
X014355Y028715D01*
X014400Y028687D01*
X014443Y028655D01*
X014483Y028620D01*
X014520Y028583D01*
X014555Y028543D01*
X014587Y028500D01*
X014615Y028455D01*
X014640Y028408D01*
X014661Y028359D01*
X014678Y028309D01*
X014692Y028258D01*
X014702Y028206D01*
X014708Y028153D01*
X014710Y028100D01*
X014708Y028047D01*
X014702Y027994D01*
X014692Y027942D01*
X014678Y027891D01*
X014661Y027841D01*
X014640Y027792D01*
X014615Y027745D01*
X014587Y027700D01*
X014555Y027657D01*
X014520Y027617D01*
X014483Y027580D01*
X014443Y027545D01*
X014400Y027513D01*
X014355Y027485D01*
X014308Y027460D01*
X014259Y027439D01*
X014209Y027422D01*
X014158Y027408D01*
X014106Y027398D01*
X014053Y027392D01*
X014000Y027390D01*
X013947Y027392D01*
X013894Y027398D01*
X013842Y027408D01*
X013791Y027422D01*
X013741Y027439D01*
X013692Y027460D01*
X013645Y027485D01*
X013600Y027513D01*
X013557Y027545D01*
X013517Y027580D01*
X013480Y027617D01*
X013445Y027657D01*
X013413Y027700D01*
X013385Y027745D01*
X013360Y027792D01*
X013339Y027841D01*
X013322Y027891D01*
X013308Y027942D01*
X013298Y027994D01*
X013292Y028047D01*
X013290Y028100D01*
X016100Y028850D02*
X017100Y028850D01*
X018100Y028850D01*
X019100Y028850D01*
X020100Y028850D01*
X020100Y029850D01*
X019100Y029850D01*
X018100Y029850D01*
X017100Y029850D01*
X016100Y029850D01*
X016100Y028850D01*
X017100Y028850D02*
X017100Y029850D01*
X018100Y029850D02*
X018100Y028850D01*
X019100Y028850D02*
X019100Y029850D01*
X022130Y028771D02*
X022130Y028130D01*
X022557Y028130D01*
X022775Y028237D02*
X022881Y028130D01*
X023095Y028130D01*
X023202Y028237D01*
X023419Y028130D02*
X023846Y028130D01*
X023633Y028450D02*
X023419Y028450D01*
X023202Y028664D02*
X023095Y028771D01*
X022881Y028771D01*
X022775Y028664D01*
X022775Y028237D01*
X022344Y028450D02*
X022130Y028450D01*
X022130Y028771D02*
X022557Y028771D01*
X023419Y028771D02*
X023419Y028130D01*
X023419Y028771D02*
X023846Y028771D01*
X024708Y028664D02*
X024815Y028771D01*
X025028Y028771D01*
X025135Y028664D01*
X025135Y028557D01*
X025028Y028450D01*
X025135Y028344D01*
X025135Y028237D01*
X025028Y028130D01*
X024815Y028130D01*
X024708Y028237D01*
X024922Y028450D02*
X025028Y028450D01*
X025353Y028450D02*
X025566Y028664D01*
X025780Y028771D01*
X025997Y028664D02*
X026104Y028771D01*
X026318Y028771D01*
X026424Y028664D01*
X026424Y028557D01*
X025997Y028130D01*
X026424Y028130D01*
X025780Y028237D02*
X025673Y028130D01*
X025460Y028130D01*
X025353Y028237D01*
X025353Y028450D01*
X025673Y028450D01*
X025780Y028344D01*
X025780Y028237D01*
X029100Y028850D02*
X030100Y028850D01*
X031100Y028850D01*
X032100Y028850D01*
X033100Y028850D01*
X033100Y029850D01*
X032100Y029850D01*
X031100Y029850D01*
X030100Y029850D01*
X029100Y029850D01*
X029100Y028850D01*
X030100Y028850D02*
X030100Y029850D01*
X031100Y029850D02*
X031100Y028850D01*
X032100Y028850D02*
X032100Y029850D01*
X024700Y022000D02*
X023850Y022000D01*
X023848Y021970D01*
X023843Y021940D01*
X023834Y021911D01*
X023821Y021884D01*
X023806Y021858D01*
X023787Y021834D01*
X023766Y021813D01*
X023742Y021794D01*
X023716Y021779D01*
X023689Y021766D01*
X023660Y021757D01*
X023630Y021752D01*
X023600Y021750D01*
X023570Y021752D01*
X023540Y021757D01*
X023511Y021766D01*
X023484Y021779D01*
X023458Y021794D01*
X023434Y021813D01*
X023413Y021834D01*
X023394Y021858D01*
X023379Y021884D01*
X023366Y021911D01*
X023357Y021940D01*
X023352Y021970D01*
X023350Y022000D01*
X022500Y022000D01*
X022500Y010200D01*
X024700Y010200D01*
X024700Y022000D01*
X031850Y019100D02*
X031850Y018100D01*
X031850Y017100D01*
X031850Y016100D01*
X031850Y015100D01*
X031850Y014100D01*
X031850Y013100D01*
X031850Y012100D01*
X031850Y011100D01*
X031850Y010100D01*
X031850Y009100D01*
X031850Y008100D01*
X031850Y007100D01*
X031850Y006100D01*
X031850Y005100D01*
X031850Y004100D01*
X031850Y003100D01*
X032850Y003100D01*
X032850Y004100D01*
X032850Y005100D01*
X032850Y006100D01*
X032850Y007100D01*
X032850Y008100D01*
X032850Y009100D01*
X032850Y010100D01*
X032850Y011100D01*
X032850Y012100D01*
X032850Y013100D01*
X032850Y014100D01*
X032850Y015100D01*
X032850Y016100D01*
X032850Y017100D01*
X032850Y018100D01*
X032850Y019100D01*
X031850Y019100D01*
X031850Y018100D02*
X032850Y018100D01*
X032850Y017100D02*
X031850Y017100D01*
X031850Y016100D02*
X032850Y016100D01*
X032850Y015100D02*
X031850Y015100D01*
X031850Y014100D02*
X032850Y014100D01*
X032850Y013100D02*
X031850Y013100D01*
X031850Y012100D02*
X032850Y012100D01*
X032850Y011100D02*
X031850Y011100D01*
X031850Y010100D02*
X032850Y010100D01*
X032850Y009100D02*
X031850Y009100D01*
X031850Y008100D02*
X032850Y008100D01*
X032850Y007100D02*
X031850Y007100D01*
X031850Y006100D02*
X032850Y006100D01*
X032850Y005100D02*
X031850Y005100D01*
X031850Y004100D02*
X032850Y004100D01*
X024100Y002700D02*
X024100Y002500D01*
X019100Y002500D01*
X019100Y002700D01*
X020000Y002700D01*
X020150Y002700D01*
X020150Y005600D01*
X020300Y005600D01*
X021000Y005600D01*
X021150Y005600D01*
X021150Y002700D01*
X021300Y002700D01*
X022000Y002700D01*
X022150Y002700D01*
X022150Y005600D01*
X022300Y005600D01*
X023000Y005600D01*
X023150Y005600D01*
X023150Y002700D01*
X023300Y002700D01*
X024100Y002700D01*
X024100Y005600D01*
X023300Y005600D01*
X023150Y005600D01*
X022150Y005600D02*
X022000Y005600D01*
X021300Y005600D01*
X021150Y005600D01*
X020150Y005600D02*
X020000Y005600D01*
X019100Y005600D01*
X019100Y002700D01*
X020150Y002700D02*
X020300Y002700D01*
X021000Y002700D01*
X021150Y002700D01*
X022150Y002700D02*
X022300Y002700D01*
X023000Y002700D01*
X023150Y002700D01*
D12*
X022927Y003120D02*
X023080Y003273D01*
X022927Y003427D01*
X022620Y003427D01*
X022696Y003580D02*
X023003Y003580D01*
X023080Y003657D01*
X023080Y003811D01*
X023003Y003887D01*
X023003Y004041D02*
X023080Y004118D01*
X023080Y004271D01*
X023003Y004348D01*
X022696Y004348D02*
X022620Y004271D01*
X022620Y004118D01*
X022696Y004041D01*
X023003Y004041D01*
X022696Y003887D02*
X022620Y003811D01*
X022620Y003657D01*
X022696Y003580D01*
X022080Y003580D02*
X021620Y003580D01*
X022080Y003887D01*
X021620Y003887D01*
X021620Y004041D02*
X021620Y004271D01*
X021696Y004348D01*
X022003Y004348D01*
X022080Y004271D01*
X022080Y004041D01*
X021620Y004041D01*
X021080Y004118D02*
X021080Y004271D01*
X021003Y004348D01*
X020927Y004348D01*
X020850Y004271D01*
X020850Y004118D01*
X020773Y004041D01*
X020696Y004041D01*
X020620Y004118D01*
X020620Y004271D01*
X020696Y004348D01*
X020620Y004501D02*
X021080Y004501D01*
X021080Y004808D01*
X020850Y004655D02*
X020850Y004501D01*
X020620Y004501D02*
X020620Y004808D01*
X020620Y004962D02*
X020620Y005268D01*
X020620Y005115D02*
X021080Y005115D01*
X021080Y004118D02*
X021003Y004041D01*
X021080Y003887D02*
X021080Y003580D01*
X020620Y003580D01*
X020620Y003887D01*
X020850Y003734D02*
X020850Y003580D01*
X020850Y003427D02*
X020927Y003350D01*
X020927Y003120D01*
X021080Y003120D02*
X020620Y003120D01*
X020620Y003350D01*
X020696Y003427D01*
X020850Y003427D01*
X020927Y003273D02*
X021080Y003427D01*
X021620Y003350D02*
X021620Y003197D01*
X021696Y003120D01*
X022003Y003120D01*
X022080Y003197D01*
X022080Y003350D01*
X022003Y003427D01*
X021850Y003427D01*
X021850Y003273D01*
X021696Y003427D02*
X021620Y003350D01*
X022620Y003120D02*
X022927Y003120D01*
X023620Y003620D02*
X024003Y003620D01*
X024080Y003697D01*
X024080Y003850D01*
X024003Y003927D01*
X023620Y003927D01*
X023620Y004080D02*
X024080Y004387D01*
X023620Y004387D01*
X023620Y004541D02*
X024003Y004541D01*
X024080Y004618D01*
X024080Y004771D01*
X024003Y004848D01*
X023620Y004848D01*
X023696Y005001D02*
X023773Y005001D01*
X023850Y005078D01*
X023850Y005231D01*
X023927Y005308D01*
X024003Y005308D01*
X024080Y005231D01*
X024080Y005078D01*
X024003Y005001D01*
X023696Y005001D02*
X023620Y005078D01*
X023620Y005231D01*
X023696Y005308D01*
X023620Y005462D02*
X024080Y005462D01*
X024080Y005768D01*
X024080Y005922D02*
X024080Y006152D01*
X024003Y006229D01*
X023696Y006229D01*
X023620Y006152D01*
X023620Y005922D01*
X024080Y005922D01*
X023850Y005615D02*
X023850Y005462D01*
X023620Y005462D02*
X023620Y005768D01*
X023620Y004080D02*
X024080Y004080D01*
X025120Y002080D02*
X025350Y002080D01*
X025427Y002004D01*
X025427Y001927D01*
X025350Y001850D01*
X025120Y001850D01*
X025120Y001620D02*
X025350Y001620D01*
X025427Y001697D01*
X025427Y001773D01*
X025350Y001850D01*
X025580Y001697D02*
X025657Y001620D01*
X025811Y001620D01*
X025887Y001697D01*
X025887Y002004D01*
X025811Y002080D01*
X025657Y002080D01*
X025580Y002004D01*
X025580Y001697D01*
X025120Y001620D02*
X025120Y002080D01*
X026041Y002080D02*
X026041Y001620D01*
X026348Y001620D02*
X026041Y002080D01*
X026348Y002080D02*
X026348Y001620D01*
X026501Y001620D02*
X026808Y001620D01*
X026962Y001697D02*
X027038Y001620D01*
X027192Y001620D01*
X027268Y001697D01*
X027268Y001773D01*
X027192Y001850D01*
X027038Y001850D01*
X026962Y001927D01*
X026962Y002004D01*
X027038Y002080D01*
X027192Y002080D01*
X027268Y002004D01*
X027422Y002080D02*
X027729Y002080D01*
X027882Y002080D02*
X027882Y001620D01*
X028189Y001620D01*
X028343Y001620D02*
X028650Y001620D01*
X028803Y001620D02*
X029110Y001620D01*
X028803Y001620D02*
X028803Y002080D01*
X028650Y002080D02*
X028343Y002080D01*
X028343Y001620D01*
X028343Y001850D02*
X028496Y001850D01*
X028189Y002080D02*
X027882Y002080D01*
X027882Y001850D02*
X028036Y001850D01*
X027575Y001620D02*
X027575Y002080D01*
X026808Y002080D02*
X026501Y002080D01*
X026501Y001620D01*
X026501Y001850D02*
X026655Y001850D01*
X026655Y001080D02*
X026501Y001080D01*
X026578Y001080D02*
X026578Y000620D01*
X026501Y000620D02*
X026655Y000620D01*
X026808Y000620D02*
X026808Y000927D01*
X026962Y001080D01*
X027115Y000927D01*
X027115Y000620D01*
X027268Y000620D02*
X027268Y001080D01*
X027575Y000620D01*
X027575Y001080D01*
X027729Y001004D02*
X027729Y000697D01*
X027806Y000620D01*
X027959Y000620D01*
X028036Y000697D01*
X028036Y001004D01*
X027959Y001080D01*
X027806Y001080D01*
X027729Y001004D01*
X027115Y000850D02*
X026808Y000850D01*
X026348Y000620D02*
X026041Y000620D01*
X026041Y001080D01*
X025887Y001080D02*
X025580Y001080D01*
X025580Y000620D01*
X025887Y000620D01*
X025734Y000850D02*
X025580Y000850D01*
X025427Y000697D02*
X025350Y000620D01*
X025197Y000620D01*
X025120Y000697D01*
X025120Y001004D01*
X025197Y001080D01*
X025350Y001080D01*
X025427Y001004D01*
X028620Y003120D02*
X028620Y003580D01*
X028850Y003580D01*
X028927Y003504D01*
X028927Y003350D01*
X028850Y003273D01*
X028620Y003273D01*
X029080Y003120D02*
X029234Y003120D01*
X029157Y003120D02*
X029157Y003580D01*
X029080Y003580D02*
X029234Y003580D01*
X029387Y003580D02*
X029694Y003120D01*
X029694Y003580D01*
X029387Y003580D02*
X029387Y003120D01*
X030308Y003120D02*
X030615Y003120D01*
X030462Y003120D02*
X030462Y003580D01*
X030308Y003427D01*
X030234Y002080D02*
X030387Y001927D01*
X030387Y001620D01*
X030541Y001620D02*
X030541Y002080D01*
X030541Y001850D02*
X030848Y001850D01*
X031001Y001697D02*
X031001Y002004D01*
X031078Y002080D01*
X031231Y002080D01*
X031308Y002004D01*
X031308Y001697D01*
X031231Y001620D01*
X031078Y001620D01*
X031001Y001697D01*
X030848Y001620D02*
X030848Y002080D01*
X030387Y001850D02*
X030080Y001850D01*
X030080Y001927D02*
X030080Y001620D01*
X029927Y001620D02*
X029927Y002080D01*
X029773Y001927D01*
X029620Y002080D01*
X029620Y001620D01*
X030080Y001927D02*
X030234Y002080D01*
X030080Y001080D02*
X030080Y000620D01*
X030387Y000620D01*
X030541Y000850D02*
X030848Y000850D01*
X031001Y000773D02*
X031308Y001080D01*
X031462Y001080D02*
X031462Y000620D01*
X031308Y000620D02*
X031078Y000850D01*
X031001Y001080D02*
X031001Y000620D01*
X031462Y000850D02*
X031768Y000850D01*
X031922Y000850D02*
X032229Y000850D01*
X032229Y000927D02*
X032229Y000620D01*
X032382Y000620D02*
X032689Y000620D01*
X032843Y000620D02*
X032843Y000927D01*
X032996Y001080D01*
X033150Y000927D01*
X033150Y000620D01*
X033303Y000620D02*
X033303Y001080D01*
X033610Y001080D01*
X033457Y000850D02*
X033303Y000850D01*
X033150Y000850D02*
X032843Y000850D01*
X032382Y001080D02*
X032382Y000620D01*
X032229Y000927D02*
X032075Y001080D01*
X031922Y000927D01*
X031922Y000620D01*
X031768Y000620D02*
X031768Y001080D01*
X031768Y001620D02*
X031768Y002080D01*
X031922Y002080D02*
X031922Y002004D01*
X032075Y001850D01*
X032075Y001620D01*
X032075Y001850D02*
X032229Y002004D01*
X032229Y002080D01*
X031768Y001620D02*
X031462Y002080D01*
X031462Y001620D01*
X029927Y000927D02*
X029927Y000620D01*
X029927Y000850D02*
X029620Y000850D01*
X029620Y000927D02*
X029773Y001080D01*
X029927Y000927D01*
X029620Y000927D02*
X029620Y000620D01*
X019580Y003120D02*
X019120Y003120D01*
X019120Y003350D01*
X019196Y003427D01*
X019350Y003427D01*
X019427Y003350D01*
X019427Y003120D01*
X019503Y003580D02*
X019196Y003580D01*
X019120Y003657D01*
X019120Y003811D01*
X019196Y003887D01*
X019503Y003887D01*
X019580Y003811D01*
X019580Y003657D01*
X019503Y003580D01*
X019120Y004041D02*
X019120Y004348D01*
X019120Y004194D02*
X019580Y004194D01*
X005115Y010120D02*
X005115Y010580D01*
X004962Y010580D02*
X005268Y010580D01*
X004808Y010580D02*
X004808Y010197D01*
X004731Y010120D01*
X004578Y010120D01*
X004501Y010197D01*
X004501Y010580D01*
X004348Y010504D02*
X004271Y010580D01*
X004118Y010580D01*
X004041Y010504D01*
X004041Y010197D01*
X004118Y010120D01*
X004271Y010120D01*
X004348Y010197D01*
X004348Y010504D01*
X003887Y010120D02*
X003580Y010120D01*
X003734Y010120D02*
X003734Y010580D01*
X003580Y010427D01*
X003427Y010580D02*
X003120Y010580D01*
X003273Y010580D02*
X003273Y010120D01*
X003273Y014120D02*
X003427Y014273D01*
X003427Y014580D01*
X003580Y014504D02*
X003580Y014197D01*
X003657Y014120D01*
X003811Y014120D01*
X003887Y014197D01*
X004041Y014197D02*
X004041Y014504D01*
X004118Y014580D01*
X004271Y014580D01*
X004348Y014504D01*
X004348Y014197D02*
X004271Y014120D01*
X004118Y014120D01*
X004041Y014197D01*
X003887Y014504D02*
X003811Y014580D01*
X003657Y014580D01*
X003580Y014504D01*
X003273Y014120D02*
X003120Y014273D01*
X003120Y014580D01*
X003197Y015120D02*
X003350Y015120D01*
X003427Y015197D01*
X003427Y015350D01*
X003273Y015350D01*
X003120Y015197D02*
X003197Y015120D01*
X003120Y015197D02*
X003120Y015504D01*
X003197Y015580D01*
X003350Y015580D01*
X003427Y015504D01*
X003580Y015580D02*
X003887Y015120D01*
X003887Y015580D01*
X004041Y015580D02*
X004271Y015580D01*
X004348Y015504D01*
X004348Y015197D01*
X004271Y015120D01*
X004041Y015120D01*
X004041Y015580D01*
X003580Y015580D02*
X003580Y015120D01*
X003580Y016120D02*
X003887Y016120D01*
X003734Y016120D02*
X003734Y016580D01*
X003580Y016427D01*
X003427Y016580D02*
X003120Y016580D01*
X003273Y016580D02*
X003273Y016120D01*
X004041Y016120D02*
X004194Y016120D01*
X004118Y016120D02*
X004118Y016580D01*
X004194Y016580D02*
X004041Y016580D01*
X004348Y016580D02*
X004655Y016120D01*
X004655Y016580D01*
X004348Y016580D02*
X004348Y016120D01*
X006620Y022620D02*
X006620Y023080D01*
X006850Y023080D01*
X006927Y023004D01*
X006927Y022850D01*
X006850Y022773D01*
X006620Y022773D01*
X007080Y022620D02*
X007234Y022620D01*
X007157Y022620D02*
X007157Y023080D01*
X007080Y023080D02*
X007234Y023080D01*
X007387Y023080D02*
X007694Y022620D01*
X007694Y023080D01*
X007387Y023080D02*
X007387Y022620D01*
X008308Y022620D02*
X008615Y022620D01*
X008462Y022620D02*
X008462Y023080D01*
X008308Y022927D01*
X008308Y023620D02*
X008462Y023773D01*
X008462Y023927D01*
X008308Y024080D01*
X008155Y024080D02*
X007848Y023620D01*
X007694Y023697D02*
X007694Y024004D01*
X007618Y024080D01*
X007464Y024080D01*
X007387Y024004D01*
X007387Y023697D01*
X007464Y023620D01*
X007618Y023620D01*
X007694Y023697D01*
X007848Y024080D02*
X008155Y023620D01*
X007234Y023697D02*
X007157Y023620D01*
X006927Y023620D01*
X006927Y024080D01*
X007157Y024080D01*
X007234Y024004D01*
X007234Y023927D01*
X007157Y023850D01*
X006927Y023850D01*
X007157Y023850D02*
X007234Y023773D01*
X007234Y023697D01*
X006773Y023620D02*
X006620Y023773D01*
X006620Y023927D01*
X006773Y024080D01*
X003887Y023580D02*
X003887Y023120D01*
X003580Y023580D01*
X003580Y023120D01*
X003427Y023197D02*
X003427Y023504D01*
X003350Y023580D01*
X003197Y023580D01*
X003120Y023504D01*
X003120Y023197D01*
X003197Y023120D01*
X003350Y023120D01*
X003427Y023197D01*
X006273Y027120D02*
X006427Y027273D01*
X006427Y027580D01*
X006580Y027504D02*
X006657Y027580D01*
X006811Y027580D01*
X006887Y027504D01*
X007041Y027504D02*
X007041Y027197D01*
X007118Y027120D01*
X007271Y027120D01*
X007348Y027197D01*
X007348Y027504D02*
X007271Y027580D01*
X007118Y027580D01*
X007041Y027504D01*
X006887Y027197D02*
X006811Y027120D01*
X006657Y027120D01*
X006580Y027197D01*
X006580Y027504D01*
X006120Y027580D02*
X006120Y027273D01*
X006273Y027120D01*
X006197Y028120D02*
X006350Y028120D01*
X006427Y028197D01*
X006427Y028350D01*
X006273Y028350D01*
X006120Y028197D02*
X006120Y028504D01*
X006197Y028580D01*
X006350Y028580D01*
X006427Y028504D01*
X006580Y028580D02*
X006580Y028120D01*
X006887Y028120D02*
X006887Y028580D01*
X007041Y028580D02*
X007271Y028580D01*
X007348Y028504D01*
X007348Y028197D01*
X007271Y028120D01*
X007041Y028120D01*
X007041Y028580D01*
X006580Y028580D02*
X006887Y028120D01*
X006197Y028120D02*
X006120Y028197D01*
X006273Y029120D02*
X006427Y029273D01*
X006427Y029580D01*
X006580Y029580D02*
X006734Y029580D01*
X006657Y029580D02*
X006657Y029120D01*
X006580Y029120D02*
X006734Y029120D01*
X006887Y029120D02*
X006887Y029580D01*
X007194Y029120D01*
X007194Y029580D01*
X006273Y029120D02*
X006120Y029273D01*
X006120Y029580D01*
X016120Y025580D02*
X016120Y025120D01*
X016120Y025273D02*
X016350Y025273D01*
X016427Y025350D01*
X016427Y025504D01*
X016350Y025580D01*
X016120Y025580D01*
X016580Y025580D02*
X016734Y025580D01*
X016657Y025580D02*
X016657Y025120D01*
X016580Y025120D02*
X016734Y025120D01*
X016887Y025120D02*
X016887Y025580D01*
X017194Y025120D01*
X017194Y025580D01*
X017808Y025427D02*
X017962Y025580D01*
X017962Y025120D01*
X018115Y025120D02*
X017808Y025120D01*
X017885Y023080D02*
X018038Y023080D01*
X018115Y023004D01*
X018115Y022927D01*
X018038Y022850D01*
X018115Y022773D01*
X018115Y022697D01*
X018038Y022620D01*
X017885Y022620D01*
X017808Y022697D01*
X017962Y022850D02*
X018038Y022850D01*
X017808Y023004D02*
X017885Y023080D01*
X018268Y023004D02*
X018345Y023080D01*
X018499Y023080D01*
X018575Y023004D01*
X018575Y022927D01*
X018268Y022620D01*
X018575Y022620D01*
X019620Y022080D02*
X019620Y021620D01*
X019620Y021773D02*
X019850Y021773D01*
X019927Y021850D01*
X019927Y022004D01*
X019850Y022080D01*
X019620Y022080D01*
X020080Y022080D02*
X020234Y022080D01*
X020157Y022080D02*
X020157Y021620D01*
X020080Y021620D02*
X020234Y021620D01*
X020387Y021620D02*
X020387Y022080D01*
X020694Y021620D01*
X020694Y022080D01*
X021308Y021927D02*
X021462Y022080D01*
X021462Y021620D01*
X021615Y021620D02*
X021308Y021620D01*
X017194Y022620D02*
X017194Y023080D01*
X016887Y023080D02*
X016887Y022620D01*
X016734Y022620D02*
X016580Y022620D01*
X016657Y022620D02*
X016657Y023080D01*
X016580Y023080D02*
X016734Y023080D01*
X016887Y023080D02*
X017194Y022620D01*
X016427Y022850D02*
X016350Y022773D01*
X016120Y022773D01*
X016120Y022620D02*
X016120Y023080D01*
X016350Y023080D01*
X016427Y023004D01*
X016427Y022850D01*
X026120Y022080D02*
X026120Y021620D01*
X026120Y021773D02*
X026350Y021773D01*
X026427Y021850D01*
X026427Y022004D01*
X026350Y022080D01*
X026120Y022080D01*
X026580Y022080D02*
X026734Y022080D01*
X026657Y022080D02*
X026657Y021620D01*
X026580Y021620D02*
X026734Y021620D01*
X026887Y021620D02*
X026887Y022080D01*
X027194Y021620D01*
X027194Y022080D01*
X027808Y022004D02*
X027885Y022080D01*
X028038Y022080D01*
X028115Y022004D01*
X028115Y021927D01*
X027808Y021620D01*
X028115Y021620D01*
X028268Y021850D02*
X028575Y021850D01*
X028499Y021620D02*
X028499Y022080D01*
X028268Y021850D01*
X028350Y019080D02*
X028120Y019080D01*
X028120Y018620D01*
X028120Y018773D02*
X028350Y018773D01*
X028427Y018850D01*
X028427Y019004D01*
X028350Y019080D01*
X028580Y019080D02*
X028734Y019080D01*
X028657Y019080D02*
X028657Y018620D01*
X028580Y018620D02*
X028734Y018620D01*
X028887Y018620D02*
X028887Y019080D01*
X029194Y018620D01*
X029194Y019080D01*
X029808Y018927D02*
X029962Y019080D01*
X029962Y018620D01*
X030115Y018620D02*
X029808Y018620D01*
X030268Y018697D02*
X030345Y018620D01*
X030499Y018620D01*
X030575Y018697D01*
X030575Y018773D01*
X030499Y018850D01*
X030268Y018850D01*
X030268Y018697D01*
X030268Y018850D02*
X030422Y019004D01*
X030575Y019080D01*
X031620Y025120D02*
X031620Y025580D01*
X031850Y025580D01*
X031927Y025504D01*
X031927Y025350D01*
X031850Y025273D01*
X031620Y025273D01*
X032080Y025120D02*
X032234Y025120D01*
X032157Y025120D02*
X032157Y025580D01*
X032080Y025580D02*
X032234Y025580D01*
X032387Y025580D02*
X032694Y025120D01*
X032694Y025580D01*
X032387Y025580D02*
X032387Y025120D01*
X033308Y025197D02*
X033308Y025273D01*
X033385Y025350D01*
X033538Y025350D01*
X033615Y025273D01*
X033615Y025197D01*
X033538Y025120D01*
X033385Y025120D01*
X033308Y025197D01*
X033385Y025350D02*
X033308Y025427D01*
X033308Y025504D01*
X033385Y025580D01*
X033538Y025580D01*
X033615Y025504D01*
X033615Y025427D01*
X033538Y025350D01*
D13*
X032600Y026350D02*
X032600Y028600D01*
X031600Y028600D02*
X031600Y026350D01*
X030600Y026350D02*
X030600Y028600D01*
X029600Y028600D02*
X029600Y026350D01*
X033100Y018600D02*
X035350Y018600D01*
X035350Y017600D02*
X033100Y017600D01*
X033100Y016600D02*
X035350Y016600D01*
X035350Y015600D02*
X033100Y015600D01*
X033100Y014600D02*
X035350Y014600D01*
X035350Y013600D02*
X033100Y013600D01*
X033100Y012600D02*
X035350Y012600D01*
X035350Y011600D02*
X033100Y011600D01*
X033100Y010600D02*
X035350Y010600D01*
X035350Y009600D02*
X033100Y009600D01*
X033100Y008600D02*
X035350Y008600D01*
X035350Y007600D02*
X033100Y007600D01*
X033100Y006600D02*
X035350Y006600D01*
X035350Y005600D02*
X033100Y005600D01*
X033100Y004600D02*
X035350Y004600D01*
X035350Y003600D02*
X033100Y003600D01*
X019600Y026350D02*
X019600Y028600D01*
X018600Y028600D02*
X018600Y026350D01*
X017600Y026350D02*
X017600Y028600D01*
X016600Y028600D02*
X016600Y026350D01*
D14*
X032950Y018600D03*
X032950Y017600D03*
X032950Y016600D03*
X032950Y015600D03*
X032950Y014600D03*
X032950Y013600D03*
X032950Y012600D03*
X032950Y011600D03*
X032950Y010600D03*
X032950Y009600D03*
X032950Y008600D03*
X032950Y007600D03*
X032950Y006600D03*
X032950Y005600D03*
X032950Y004600D03*
X032950Y003600D03*
D15*
X031650Y003600D03*
X031650Y004600D03*
X031650Y005600D03*
X031650Y006600D03*
X031650Y007600D03*
X031650Y008600D03*
X031650Y009600D03*
X031650Y010600D03*
X031650Y011600D03*
X031650Y012600D03*
X031650Y013600D03*
X031650Y014600D03*
X031650Y015600D03*
X031650Y016600D03*
X031650Y017600D03*
X031650Y018600D03*
D16*
X031600Y028750D03*
X030600Y028750D03*
X029600Y028750D03*
X032600Y028750D03*
X019600Y028750D03*
X018600Y028750D03*
X017600Y028750D03*
X016600Y028750D03*
D17*
X016600Y030050D03*
X017600Y030050D03*
X018600Y030050D03*
X019600Y030050D03*
X029600Y030050D03*
X030600Y030050D03*
X031600Y030050D03*
X032600Y030050D03*
D18*
X005350Y004800D02*
X004850Y004800D01*
X005100Y005050D02*
X005100Y004550D01*
X001394Y023976D02*
X001421Y024023D01*
X001451Y024068D01*
X001484Y024111D01*
X001520Y024151D01*
X001559Y024189D01*
X001600Y024224D01*
X001643Y024257D01*
X001688Y024286D01*
X001736Y024312D01*
X001785Y024335D01*
X001835Y024355D01*
X001886Y024371D01*
X001939Y024384D01*
X001992Y024393D01*
X002046Y024398D01*
X002100Y024400D01*
X001405Y023203D02*
X001435Y023155D01*
X001468Y023110D01*
X001504Y023067D01*
X001542Y023026D01*
X001584Y022989D01*
X001628Y022954D01*
X001674Y022923D01*
X001723Y022894D01*
X001773Y022870D01*
X001825Y022849D01*
X001879Y022831D01*
X001933Y022818D01*
X001988Y022808D01*
X002044Y022802D01*
X002100Y022800D01*
X002153Y022802D01*
X002207Y022807D01*
X002259Y022816D01*
X002311Y022828D01*
X002362Y022844D01*
X002412Y022863D01*
X002461Y022886D01*
X002508Y022912D01*
X002553Y022940D01*
X002596Y022972D01*
X002636Y023006D01*
X002675Y023044D01*
X002711Y023083D01*
X002715Y024112D02*
X002679Y024152D01*
X002640Y024190D01*
X002599Y024225D01*
X002556Y024257D01*
X002511Y024287D01*
X002464Y024313D01*
X002415Y024335D01*
X002364Y024355D01*
X002313Y024371D01*
X002261Y024384D01*
X002207Y024393D01*
X002154Y024398D01*
X002100Y024400D01*
D19*
X009350Y026300D02*
X012600Y026300D01*
X012600Y029900D01*
X009350Y029900D01*
X009350Y026300D01*
X020000Y005600D02*
X020000Y002700D01*
X020300Y002700D02*
X020300Y005600D01*
X021000Y005600D02*
X021000Y002700D01*
X021300Y002700D02*
X021300Y005600D01*
X022000Y005600D02*
X022000Y002700D01*
X022300Y002700D02*
X022300Y005600D01*
X023000Y005600D02*
X023000Y002700D01*
X023300Y002700D02*
X023300Y005600D01*
D20*
X023475Y003425D02*
X023475Y003125D01*
X023700Y003125D01*
X023625Y003275D01*
X023625Y003350D01*
X023700Y003425D01*
X023850Y003425D01*
X023925Y003350D01*
X023925Y003200D01*
X023850Y003125D01*
X022875Y003350D02*
X022425Y003350D01*
X022650Y003125D01*
X022650Y003425D01*
X021875Y003350D02*
X021875Y003200D01*
X021800Y003125D01*
X021650Y003275D02*
X021650Y003350D01*
X021725Y003425D01*
X021800Y003425D01*
X021875Y003350D01*
X021650Y003350D02*
X021575Y003425D01*
X021500Y003425D01*
X021425Y003350D01*
X021425Y003200D01*
X021500Y003125D01*
X020875Y003125D02*
X020575Y003425D01*
X020500Y003425D01*
X020425Y003350D01*
X020425Y003200D01*
X020500Y003125D01*
X020875Y003125D02*
X020875Y003425D01*
D21*
X007875Y027100D03*
X007875Y028100D03*
X007875Y029100D03*
D22*
X008550Y029100D03*
X008550Y028100D03*
X008550Y027100D03*
D23*
X004350Y026980D02*
X004100Y026980D01*
X003850Y026980D01*
X003850Y027230D02*
X004100Y027230D01*
X004350Y027230D01*
X001850Y027230D02*
X001600Y027230D01*
X001350Y027230D01*
X001350Y026980D02*
X001600Y026980D01*
X001850Y026980D01*
M02*
