%
M48
M72
T01C0.0236
T02C0.0320
T03C0.0400
T04C0.0440
T05C0.1300
%
T01
X19100Y10600
X17100Y17100
X13100Y22100
X5600Y20600
X3100Y20600
T02
X2600Y23600
X1600Y23600
X1600Y26100
X1600Y28100
X4100Y28100
X4100Y26100
X9100Y22600
X9100Y21600
X9100Y20600
X9100Y19600
X9100Y18600
X9100Y17600
X9100Y16600
X9100Y15600
X9100Y14600
X9100Y13600
X9100Y12600
X9100Y11600
X9100Y10600
X9100Y9600
X9100Y8600
X9100Y7600
X9100Y6600
X9100Y5600
X9100Y4600
X9100Y3600
X15100Y3600
X15100Y4600
X15100Y5600
X15100Y6600
X15100Y7600
X15100Y8600
X15100Y9600
X15100Y10600
X15100Y11600
X15100Y12600
X15100Y13600
X15100Y14600
X15100Y15600
X15100Y16600
X15100Y17600
X15100Y18600
X15100Y19600
X15100Y20600
X15100Y21600
X15100Y22600
X22100Y21600
X22100Y20600
X22100Y19600
X22100Y18600
X22100Y17600
X22100Y16600
X22100Y15600
X22100Y14600
X22100Y13600
X22100Y12600
X22100Y11600
X22100Y10600
X25100Y10600
X25100Y11600
X25100Y12600
X25100Y13600
X25100Y14600
X25100Y15600
X25100Y16600
X25100Y17600
X25100Y18600
X25100Y19600
X25100Y20600
X25100Y21600
X23600Y2100
X22600Y2100
X21600Y2100
X20600Y2100
X19600Y2100
T03
X2100Y3600
X5100Y3600
X2100Y10100
X2100Y11100
X2100Y12100
X2100Y13100
X2100Y14100
X2100Y15100
X2100Y16100
X2100Y17100
X2100Y18100
X2100Y19100
X1600Y30100
X4100Y30100
X16600Y30600
X17600Y30600
X18600Y30600
X19600Y30600
X29600Y30600
X30600Y30600
X31600Y30600
X32600Y30600
X31100Y18600
X31100Y17600
X31100Y16600
X31100Y15600
X31100Y14600
X31100Y13600
X31100Y12600
X31100Y11600
X31100Y10600
X31100Y9600
X31100Y8600
X31100Y7600
X31100Y6600
X31100Y5600
X31100Y4600
X31100Y3600
T04
X8100Y27100
X8100Y28100
X8100Y29100
T05
X14000Y28100
M30
