G75*
%MOIN*%
%OFA0B0*%
%FSLAX24Y24*%
%IPPOS*%
%LPD*%
%AMOC8*
5,1,8,0,0,1.08239X$1,22.5*
%
%ADD10C,0.0000*%
%ADD11C,0.0560*%
%ADD12C,0.0640*%
%ADD13OC8,0.0850*%
%ADD14OC8,0.1000*%
%ADD15C,0.0680*%
%ADD16OC8,0.0560*%
%ADD17C,0.0160*%
%ADD18C,0.0436*%
D10*
X000100Y000100D02*
X000100Y031596D01*
X033470Y031596D01*
X033470Y000100D01*
X000100Y000100D01*
X013350Y028100D02*
X013352Y028150D01*
X013358Y028200D01*
X013368Y028250D01*
X013381Y028298D01*
X013398Y028346D01*
X013419Y028392D01*
X013443Y028436D01*
X013471Y028478D01*
X013502Y028518D01*
X013536Y028555D01*
X013573Y028590D01*
X013612Y028621D01*
X013653Y028650D01*
X013697Y028675D01*
X013743Y028697D01*
X013790Y028715D01*
X013838Y028729D01*
X013887Y028740D01*
X013937Y028747D01*
X013987Y028750D01*
X014038Y028749D01*
X014088Y028744D01*
X014138Y028735D01*
X014186Y028723D01*
X014234Y028706D01*
X014280Y028686D01*
X014325Y028663D01*
X014368Y028636D01*
X014408Y028606D01*
X014446Y028573D01*
X014481Y028537D01*
X014514Y028498D01*
X014543Y028457D01*
X014569Y028414D01*
X014592Y028369D01*
X014611Y028322D01*
X014626Y028274D01*
X014638Y028225D01*
X014646Y028175D01*
X014650Y028125D01*
X014650Y028075D01*
X014646Y028025D01*
X014638Y027975D01*
X014626Y027926D01*
X014611Y027878D01*
X014592Y027831D01*
X014569Y027786D01*
X014543Y027743D01*
X014514Y027702D01*
X014481Y027663D01*
X014446Y027627D01*
X014408Y027594D01*
X014368Y027564D01*
X014325Y027537D01*
X014280Y027514D01*
X014234Y027494D01*
X014186Y027477D01*
X014138Y027465D01*
X014088Y027456D01*
X014038Y027451D01*
X013987Y027450D01*
X013937Y027453D01*
X013887Y027460D01*
X013838Y027471D01*
X013790Y027485D01*
X013743Y027503D01*
X013697Y027525D01*
X013653Y027550D01*
X013612Y027579D01*
X013573Y027610D01*
X013536Y027645D01*
X013502Y027682D01*
X013471Y027722D01*
X013443Y027764D01*
X013419Y027808D01*
X013398Y027854D01*
X013381Y027902D01*
X013368Y027950D01*
X013358Y028000D01*
X013352Y028050D01*
X013350Y028100D01*
D11*
X014820Y022600D02*
X015380Y022600D01*
X015380Y021600D02*
X014820Y021600D01*
X014820Y020600D02*
X015380Y020600D01*
X015380Y019600D02*
X014820Y019600D01*
X014820Y018600D02*
X015380Y018600D01*
X015380Y017600D02*
X014820Y017600D01*
X014820Y016600D02*
X015380Y016600D01*
X015380Y015600D02*
X014820Y015600D01*
X014820Y014600D02*
X015380Y014600D01*
X015380Y013600D02*
X014820Y013600D01*
X014820Y012600D02*
X015380Y012600D01*
X015380Y011600D02*
X014820Y011600D01*
X014820Y010600D02*
X015380Y010600D01*
X015380Y009600D02*
X014820Y009600D01*
X014820Y008600D02*
X015380Y008600D01*
X015380Y007600D02*
X014820Y007600D01*
X014820Y006600D02*
X015380Y006600D01*
X015380Y005600D02*
X014820Y005600D01*
X014820Y004600D02*
X015380Y004600D01*
X015380Y003600D02*
X014820Y003600D01*
X019600Y002380D02*
X019600Y001820D01*
X020600Y001820D02*
X020600Y002380D01*
X021600Y002380D02*
X021600Y001820D01*
X022600Y001820D02*
X022600Y002380D01*
X023600Y002380D02*
X023600Y001820D01*
X022380Y010600D02*
X021820Y010600D01*
X021820Y011600D02*
X022380Y011600D01*
X022380Y012600D02*
X021820Y012600D01*
X021820Y013600D02*
X022380Y013600D01*
X022380Y014600D02*
X021820Y014600D01*
X021820Y015600D02*
X022380Y015600D01*
X022380Y016600D02*
X021820Y016600D01*
X021820Y017600D02*
X022380Y017600D01*
X022380Y018600D02*
X021820Y018600D01*
X021820Y019600D02*
X022380Y019600D01*
X022380Y020600D02*
X021820Y020600D01*
X021820Y021600D02*
X022380Y021600D01*
X024820Y021600D02*
X025380Y021600D01*
X025380Y020600D02*
X024820Y020600D01*
X024820Y019600D02*
X025380Y019600D01*
X025380Y018600D02*
X024820Y018600D01*
X024820Y017600D02*
X025380Y017600D01*
X025380Y016600D02*
X024820Y016600D01*
X024820Y015600D02*
X025380Y015600D01*
X025380Y014600D02*
X024820Y014600D01*
X024820Y013600D02*
X025380Y013600D01*
X025380Y012600D02*
X024820Y012600D01*
X024820Y011600D02*
X025380Y011600D01*
X025380Y010600D02*
X024820Y010600D01*
X009380Y010600D02*
X008820Y010600D01*
X008820Y009600D02*
X009380Y009600D01*
X009380Y008600D02*
X008820Y008600D01*
X008820Y007600D02*
X009380Y007600D01*
X009380Y006600D02*
X008820Y006600D01*
X008820Y005600D02*
X009380Y005600D01*
X009380Y004600D02*
X008820Y004600D01*
X008820Y003600D02*
X009380Y003600D01*
X009380Y011600D02*
X008820Y011600D01*
X008820Y012600D02*
X009380Y012600D01*
X009380Y013600D02*
X008820Y013600D01*
X008820Y014600D02*
X009380Y014600D01*
X009380Y015600D02*
X008820Y015600D01*
X008820Y016600D02*
X009380Y016600D01*
X009380Y017600D02*
X008820Y017600D01*
X008820Y018600D02*
X009380Y018600D01*
X009380Y019600D02*
X008820Y019600D01*
X008820Y020600D02*
X009380Y020600D01*
X009380Y021600D02*
X008820Y021600D01*
X008820Y022600D02*
X009380Y022600D01*
D12*
X002420Y019100D02*
X001780Y019100D01*
X001780Y018100D02*
X002420Y018100D01*
X002420Y017100D02*
X001780Y017100D01*
X001780Y016100D02*
X002420Y016100D01*
X002420Y015100D02*
X001780Y015100D01*
X001780Y014100D02*
X002420Y014100D01*
X002420Y013100D02*
X001780Y013100D01*
X001780Y012100D02*
X002420Y012100D01*
X002420Y011100D02*
X001780Y011100D01*
X001780Y010100D02*
X002420Y010100D01*
X016600Y030280D02*
X016600Y030920D01*
X017600Y030920D02*
X017600Y030280D01*
X018600Y030280D02*
X018600Y030920D01*
X019600Y030920D02*
X019600Y030280D01*
X029600Y030280D02*
X029600Y030920D01*
X030600Y030920D02*
X030600Y030280D01*
X031600Y030280D02*
X031600Y030920D01*
X032600Y030920D02*
X032600Y030280D01*
X031420Y018600D02*
X030780Y018600D01*
X030780Y017600D02*
X031420Y017600D01*
X031420Y016600D02*
X030780Y016600D01*
X030780Y015600D02*
X031420Y015600D01*
X031420Y014600D02*
X030780Y014600D01*
X030780Y013600D02*
X031420Y013600D01*
X031420Y012600D02*
X030780Y012600D01*
X030780Y011600D02*
X031420Y011600D01*
X031420Y010600D02*
X030780Y010600D01*
X030780Y009600D02*
X031420Y009600D01*
X031420Y008600D02*
X030780Y008600D01*
X030780Y007600D02*
X031420Y007600D01*
X031420Y006600D02*
X030780Y006600D01*
X030780Y005600D02*
X031420Y005600D01*
X031420Y004600D02*
X030780Y004600D01*
X030780Y003600D02*
X031420Y003600D01*
D13*
X004100Y030100D03*
X001600Y030100D03*
D14*
X002100Y003600D03*
X005100Y003600D03*
D15*
X007760Y027100D02*
X008440Y027100D01*
X008440Y028100D02*
X007760Y028100D01*
X007760Y029100D02*
X008440Y029100D01*
D16*
X004100Y028100D03*
X004100Y026100D03*
X001600Y026100D03*
X001600Y028100D03*
X001600Y023600D03*
X002600Y023600D03*
D17*
X003600Y023600D01*
X004600Y022600D01*
X004600Y018100D01*
X006100Y019600D01*
X009100Y019600D01*
X012600Y019600D01*
X014600Y021600D01*
X015100Y021600D01*
X016100Y022100D01*
X016600Y022600D01*
X016600Y030600D01*
X019600Y030600D02*
X022100Y030600D01*
X023100Y029600D01*
X023100Y028100D01*
X024100Y027100D01*
X024100Y029100D01*
X025600Y030600D01*
X029600Y030600D01*
X024100Y027100D02*
X024100Y022600D01*
X023100Y023600D01*
X020600Y023600D01*
X019100Y022100D01*
X019100Y017600D01*
X017600Y016100D01*
X017100Y016100D01*
X016100Y017100D01*
X016100Y019100D01*
X015600Y019600D01*
X015100Y019600D01*
X015100Y020600D02*
X016100Y020600D01*
X017100Y019600D01*
X017100Y017100D01*
X017600Y016100D02*
X019100Y014600D01*
X019100Y010600D01*
X017100Y011600D02*
X017100Y013100D01*
X016600Y013600D01*
X015100Y013600D01*
X015100Y012600D02*
X016100Y012600D01*
X016600Y012100D01*
X016600Y010600D01*
X019600Y007600D01*
X031100Y007600D01*
X031100Y006600D02*
X019600Y006600D01*
X016100Y010100D01*
X016100Y011100D01*
X015600Y011600D01*
X015100Y011600D01*
X015100Y009600D02*
X015600Y009600D01*
X016100Y009100D01*
X016100Y007600D01*
X016600Y007100D01*
X016600Y001600D01*
X015600Y000600D01*
X008600Y000600D01*
X005600Y003600D01*
X005100Y003600D01*
X002100Y003600D02*
X002100Y006600D01*
X003100Y007600D01*
X003100Y015100D01*
X002100Y015100D01*
X003100Y015100D02*
X004600Y016600D01*
X004600Y018100D01*
X005600Y020600D02*
X006600Y021600D01*
X009100Y021600D01*
X009600Y021600D01*
X009100Y024600D02*
X011600Y024600D01*
X013100Y023100D01*
X013100Y022100D01*
X009100Y024600D02*
X008100Y025600D01*
X008100Y027100D01*
X006100Y027100D01*
X005100Y026100D01*
X004100Y026100D01*
X003100Y025100D01*
X002100Y025100D01*
X001600Y024600D01*
X001600Y023600D01*
X001600Y026100D02*
X002600Y026100D01*
X003100Y026600D01*
X003100Y029100D01*
X004100Y030100D01*
X005100Y030100D01*
X006100Y029100D01*
X008100Y029100D01*
X008100Y028100D02*
X007100Y028100D01*
X006600Y027600D01*
X006600Y025600D01*
X004600Y023600D01*
X004600Y022600D01*
X003100Y020600D02*
X001100Y020600D01*
X000600Y020100D01*
X000600Y010600D01*
X001100Y010100D01*
X002100Y010100D01*
X017100Y011600D02*
X020100Y008600D01*
X031100Y008600D01*
X031100Y009600D02*
X026600Y009600D01*
X026100Y010100D01*
X026100Y011100D01*
X025600Y011600D01*
X025100Y011600D01*
X025100Y012600D02*
X025600Y012600D01*
X027100Y010600D01*
X031100Y010600D01*
X031100Y011600D02*
X027600Y011600D01*
X026100Y013600D01*
X025100Y013600D01*
X025100Y014600D02*
X026600Y014600D01*
X028100Y012600D01*
X031100Y012600D01*
X031100Y013600D02*
X028600Y013600D01*
X027100Y015600D01*
X025100Y015600D01*
X025100Y016600D02*
X027600Y016600D01*
X029100Y014600D01*
X031100Y014600D01*
X031100Y015600D02*
X029600Y015600D01*
X028100Y017600D01*
X025100Y017600D01*
X025100Y018600D02*
X028600Y018600D01*
X030100Y016600D01*
X031100Y016600D01*
X031100Y017600D02*
X030600Y017600D01*
X029100Y019600D01*
X027100Y021600D01*
X025100Y021600D01*
X024100Y022600D01*
X023600Y004600D02*
X031100Y004600D01*
X023600Y004600D02*
X022600Y003600D01*
X022600Y002100D01*
D18*
X019100Y010600D03*
X017100Y017100D03*
X013100Y022100D03*
X005600Y020600D03*
X003100Y020600D03*
M02*
