G75*
%MOIN*%
%OFA0B0*%
%FSLAX24Y24*%
%IPPOS*%
%LPD*%
%AMOC8*
5,1,8,0,0,1.08239X$1,22.5*
%
%ADD10C,0.0560*%
%ADD11C,0.0640*%
%ADD12OC8,0.0850*%
%ADD13OC8,0.1000*%
%ADD14C,0.0680*%
%ADD15OC8,0.0560*%
%ADD16C,0.0160*%
%ADD17C,0.0436*%
D10*
X008820Y003600D02*
X009380Y003600D01*
X009380Y004600D02*
X008820Y004600D01*
X008820Y005600D02*
X009380Y005600D01*
X009380Y006600D02*
X008820Y006600D01*
X008820Y007600D02*
X009380Y007600D01*
X009380Y008600D02*
X008820Y008600D01*
X008820Y009600D02*
X009380Y009600D01*
X009380Y010600D02*
X008820Y010600D01*
X008820Y011600D02*
X009380Y011600D01*
X009380Y012600D02*
X008820Y012600D01*
X008820Y013600D02*
X009380Y013600D01*
X009380Y014600D02*
X008820Y014600D01*
X008820Y015600D02*
X009380Y015600D01*
X009380Y016600D02*
X008820Y016600D01*
X008820Y017600D02*
X009380Y017600D01*
X009380Y018600D02*
X008820Y018600D01*
X008820Y019600D02*
X009380Y019600D01*
X009380Y020600D02*
X008820Y020600D01*
X008820Y021600D02*
X009380Y021600D01*
X009380Y022600D02*
X008820Y022600D01*
X014820Y022600D02*
X015380Y022600D01*
X015380Y021600D02*
X014820Y021600D01*
X014820Y020600D02*
X015380Y020600D01*
X015380Y019600D02*
X014820Y019600D01*
X014820Y018600D02*
X015380Y018600D01*
X015380Y017600D02*
X014820Y017600D01*
X014820Y016600D02*
X015380Y016600D01*
X015380Y015600D02*
X014820Y015600D01*
X014820Y014600D02*
X015380Y014600D01*
X015380Y013600D02*
X014820Y013600D01*
X014820Y012600D02*
X015380Y012600D01*
X015380Y011600D02*
X014820Y011600D01*
X014820Y010600D02*
X015380Y010600D01*
X015380Y009600D02*
X014820Y009600D01*
X014820Y008600D02*
X015380Y008600D01*
X015380Y007600D02*
X014820Y007600D01*
X014820Y006600D02*
X015380Y006600D01*
X015380Y005600D02*
X014820Y005600D01*
X014820Y004600D02*
X015380Y004600D01*
X015380Y003600D02*
X014820Y003600D01*
X019600Y002380D02*
X019600Y001820D01*
X020600Y001820D02*
X020600Y002380D01*
X021600Y002380D02*
X021600Y001820D01*
X022600Y001820D02*
X022600Y002380D01*
X023600Y002380D02*
X023600Y001820D01*
X022380Y010600D02*
X021820Y010600D01*
X021820Y011600D02*
X022380Y011600D01*
X022380Y012600D02*
X021820Y012600D01*
X021820Y013600D02*
X022380Y013600D01*
X022380Y014600D02*
X021820Y014600D01*
X021820Y015600D02*
X022380Y015600D01*
X022380Y016600D02*
X021820Y016600D01*
X021820Y017600D02*
X022380Y017600D01*
X022380Y018600D02*
X021820Y018600D01*
X021820Y019600D02*
X022380Y019600D01*
X022380Y020600D02*
X021820Y020600D01*
X021820Y021600D02*
X022380Y021600D01*
X024820Y021600D02*
X025380Y021600D01*
X025380Y020600D02*
X024820Y020600D01*
X024820Y019600D02*
X025380Y019600D01*
X025380Y018600D02*
X024820Y018600D01*
X024820Y017600D02*
X025380Y017600D01*
X025380Y016600D02*
X024820Y016600D01*
X024820Y015600D02*
X025380Y015600D01*
X025380Y014600D02*
X024820Y014600D01*
X024820Y013600D02*
X025380Y013600D01*
X025380Y012600D02*
X024820Y012600D01*
X024820Y011600D02*
X025380Y011600D01*
X025380Y010600D02*
X024820Y010600D01*
D11*
X030780Y010600D02*
X031420Y010600D01*
X031420Y009600D02*
X030780Y009600D01*
X030780Y008600D02*
X031420Y008600D01*
X031420Y007600D02*
X030780Y007600D01*
X030780Y006600D02*
X031420Y006600D01*
X031420Y005600D02*
X030780Y005600D01*
X030780Y004600D02*
X031420Y004600D01*
X031420Y003600D02*
X030780Y003600D01*
X030780Y011600D02*
X031420Y011600D01*
X031420Y012600D02*
X030780Y012600D01*
X030780Y013600D02*
X031420Y013600D01*
X031420Y014600D02*
X030780Y014600D01*
X030780Y015600D02*
X031420Y015600D01*
X031420Y016600D02*
X030780Y016600D01*
X030780Y017600D02*
X031420Y017600D01*
X031420Y018600D02*
X030780Y018600D01*
X030600Y030280D02*
X030600Y030920D01*
X029600Y030920D02*
X029600Y030280D01*
X031600Y030280D02*
X031600Y030920D01*
X032600Y030920D02*
X032600Y030280D01*
X019600Y030280D02*
X019600Y030920D01*
X018600Y030920D02*
X018600Y030280D01*
X017600Y030280D02*
X017600Y030920D01*
X016600Y030920D02*
X016600Y030280D01*
X002420Y019100D02*
X001780Y019100D01*
X001780Y018100D02*
X002420Y018100D01*
X002420Y017100D02*
X001780Y017100D01*
X001780Y016100D02*
X002420Y016100D01*
X002420Y015100D02*
X001780Y015100D01*
X001780Y014100D02*
X002420Y014100D01*
X002420Y013100D02*
X001780Y013100D01*
X001780Y012100D02*
X002420Y012100D01*
X002420Y011100D02*
X001780Y011100D01*
X001780Y010100D02*
X002420Y010100D01*
D12*
X001600Y030100D03*
X004100Y030100D03*
D13*
X002100Y003600D03*
X005100Y003600D03*
D14*
X007760Y027100D02*
X008440Y027100D01*
X008440Y028100D02*
X007760Y028100D01*
X007760Y029100D02*
X008440Y029100D01*
D15*
X004100Y028100D03*
X004100Y026100D03*
X001600Y026100D03*
X001600Y028100D03*
X001600Y023600D03*
X002600Y023600D03*
D16*
X002600Y027100D01*
X001600Y028100D01*
X001600Y030100D01*
X002100Y030100D01*
X004100Y028100D01*
X007600Y025100D02*
X007100Y024600D01*
X007100Y020600D01*
X002600Y016100D01*
X002100Y016100D01*
X000600Y014600D02*
X001100Y014100D01*
X002100Y014100D01*
X000600Y014600D02*
X000600Y022100D01*
X001600Y023600D01*
X003100Y020600D02*
X005600Y020600D01*
X008100Y018100D02*
X008600Y018600D01*
X009100Y018600D01*
X008100Y018100D02*
X008100Y016100D01*
X007600Y015600D01*
X007600Y001100D01*
X008100Y000600D01*
X018100Y000600D01*
X019600Y002100D01*
X020600Y002100D02*
X020600Y003600D01*
X019600Y004600D01*
X018600Y004600D01*
X017100Y006100D01*
X017100Y017100D01*
X015100Y019600D02*
X013600Y019600D01*
X013100Y020100D01*
X013100Y022100D01*
X012100Y022600D02*
X013100Y023600D01*
X019100Y023600D01*
X020600Y022100D01*
X020600Y021100D01*
X021100Y020600D01*
X022100Y020600D01*
X022100Y021600D02*
X022100Y022100D01*
X019600Y024600D01*
X012100Y024600D01*
X010600Y023100D01*
X010600Y012100D01*
X009100Y010600D01*
X009100Y009600D02*
X010600Y009600D01*
X012100Y011100D01*
X012100Y022600D01*
X015100Y021600D02*
X016600Y021600D01*
X018100Y020100D01*
X018100Y012600D01*
X020100Y010600D01*
X022100Y010600D01*
X022100Y009100D01*
X023100Y008100D01*
X023100Y006600D01*
X024100Y005600D01*
X029600Y005600D01*
X029600Y004100D01*
X030100Y003600D01*
X031100Y003600D01*
X028100Y000600D01*
X022100Y000600D01*
X021600Y001100D01*
X021600Y002100D01*
X022600Y002100D02*
X022600Y005100D01*
X021600Y006100D01*
X020100Y006100D01*
X019100Y007100D01*
X019100Y010600D01*
X029100Y007100D02*
X030600Y005600D01*
X031100Y005600D01*
X029600Y005600D01*
X029100Y007100D02*
X029100Y017600D01*
X030100Y018600D01*
X031100Y018600D01*
X031100Y021100D01*
X031600Y021600D01*
X031600Y030600D01*
X017600Y030600D02*
X017600Y026600D01*
X016100Y025100D01*
X007600Y025100D01*
D17*
X005600Y020600D03*
X003100Y020600D03*
X013100Y022100D03*
X017100Y017100D03*
X019100Y010600D03*
M02*
