%
M48
M72
T01C0.0236
T02C0.0320
T03C0.0400
T04C0.0440
T05C0.1300
%
T01
X4100Y9100
T02
X1600Y1600
X1600Y2600
X1600Y3600
X1600Y4600
X1600Y5600
X1600Y6600
X1600Y7600
X1600Y8600
X1600Y9600
X1600Y10600
X1600Y11600
X1600Y12600
X1600Y14600
X1600Y15600
X1600Y16600
X1600Y17600
X1600Y18600
X1600Y19600
X1600Y20600
X1600Y21600
X1600Y22600
X1600Y23600
X1600Y24600
X1600Y25600
X4100Y24600
X4100Y22600
X3100Y20600
X3100Y18600
X3100Y16600
X3100Y14600
X5100Y14600
X5100Y16600
X5100Y18600
X5100Y20600
X7100Y20600
X7100Y19600
X7100Y18600
X7100Y17600
X7100Y16600
X7100Y15600
X7100Y14600
X7100Y13600
X7100Y12600
X7100Y11600
X7100Y10600
X7100Y9600
X7100Y8600
X7100Y7600
X7100Y6600
X7100Y5600
X7100Y4600
X7100Y3600
X7100Y2600
X7100Y1600
X13100Y1600
X13100Y2600
X13100Y3600
X13100Y4600
X13100Y5600
X13100Y6600
X13100Y7600
X13100Y8600
X13100Y9600
X13100Y10600
X13100Y11600
X13100Y12600
X13100Y13600
X13100Y14600
X13100Y15600
X13100Y16600
X13100Y17600
X13100Y18600
X13100Y19600
X13100Y20600
X16100Y20100
X16100Y21100
X16100Y19100
X16100Y18100
X16100Y17100
X16100Y16100
X16100Y15100
X16100Y14100
X16100Y13100
X16100Y12100
X16100Y11100
X16100Y10100
X16100Y9100
X16100Y8100
X19100Y8100
X19100Y9100
X19100Y10100
X19100Y11100
X19100Y12100
X19100Y13100
X19100Y14100
X19100Y15100
X19100Y16100
X19100Y17100
X19100Y18100
X19100Y19100
X19100Y20100
X19100Y21100
X22100Y20100
X22100Y19100
X22100Y18100
X22100Y17100
X22100Y16100
X22100Y15100
X22100Y14100
X22100Y13100
X22100Y12100
X22100Y11100
X22100Y10100
X22100Y9100
X7100Y22600
X7100Y24600
T03
X6600Y26600
X21100Y22600
X22600Y5100
X22600Y4100
X22600Y3100
X22600Y2100
X19100Y4100
X16100Y4100
T04
X9600Y24100
X9600Y25100
X9600Y26100
T05
X15500Y25100
M30
