G75*
%MOIN*%
%OFA0B0*%
%FSLAX24Y24*%
%IPPOS*%
%LPD*%
%AMOC8*
5,1,8,0,0,1.08239X$1,22.5*
%
%ADD10C,0.0000*%
%ADD11C,0.0560*%
%ADD12OC8,0.0560*%
%ADD13OC8,0.0850*%
%ADD14C,0.0640*%
%ADD15OC8,0.1000*%
%ADD16C,0.0680*%
%ADD17C,0.0100*%
%ADD18C,0.0120*%
%ADD19R,0.0436X0.0436*%
D10*
X000100Y000100D02*
X000100Y028470D01*
X024092Y028470D01*
X024092Y000100D01*
X000100Y000100D01*
X014850Y025100D02*
X014852Y025150D01*
X014858Y025200D01*
X014868Y025250D01*
X014881Y025298D01*
X014898Y025346D01*
X014919Y025392D01*
X014943Y025436D01*
X014971Y025478D01*
X015002Y025518D01*
X015036Y025555D01*
X015073Y025590D01*
X015112Y025621D01*
X015153Y025650D01*
X015197Y025675D01*
X015243Y025697D01*
X015290Y025715D01*
X015338Y025729D01*
X015387Y025740D01*
X015437Y025747D01*
X015487Y025750D01*
X015538Y025749D01*
X015588Y025744D01*
X015638Y025735D01*
X015686Y025723D01*
X015734Y025706D01*
X015780Y025686D01*
X015825Y025663D01*
X015868Y025636D01*
X015908Y025606D01*
X015946Y025573D01*
X015981Y025537D01*
X016014Y025498D01*
X016043Y025457D01*
X016069Y025414D01*
X016092Y025369D01*
X016111Y025322D01*
X016126Y025274D01*
X016138Y025225D01*
X016146Y025175D01*
X016150Y025125D01*
X016150Y025075D01*
X016146Y025025D01*
X016138Y024975D01*
X016126Y024926D01*
X016111Y024878D01*
X016092Y024831D01*
X016069Y024786D01*
X016043Y024743D01*
X016014Y024702D01*
X015981Y024663D01*
X015946Y024627D01*
X015908Y024594D01*
X015868Y024564D01*
X015825Y024537D01*
X015780Y024514D01*
X015734Y024494D01*
X015686Y024477D01*
X015638Y024465D01*
X015588Y024456D01*
X015538Y024451D01*
X015487Y024450D01*
X015437Y024453D01*
X015387Y024460D01*
X015338Y024471D01*
X015290Y024485D01*
X015243Y024503D01*
X015197Y024525D01*
X015153Y024550D01*
X015112Y024579D01*
X015073Y024610D01*
X015036Y024645D01*
X015002Y024682D01*
X014971Y024722D01*
X014943Y024764D01*
X014919Y024808D01*
X014898Y024854D01*
X014881Y024902D01*
X014868Y024950D01*
X014858Y025000D01*
X014852Y025050D01*
X014850Y025100D01*
D11*
X015820Y021100D02*
X016380Y021100D01*
X016380Y020100D02*
X015820Y020100D01*
X015820Y019100D02*
X016380Y019100D01*
X016380Y018100D02*
X015820Y018100D01*
X015820Y017100D02*
X016380Y017100D01*
X016380Y016100D02*
X015820Y016100D01*
X015820Y015100D02*
X016380Y015100D01*
X016380Y014100D02*
X015820Y014100D01*
X015820Y013100D02*
X016380Y013100D01*
X016380Y012100D02*
X015820Y012100D01*
X015820Y011100D02*
X016380Y011100D01*
X016380Y010100D02*
X015820Y010100D01*
X015820Y009100D02*
X016380Y009100D01*
X016380Y008100D02*
X015820Y008100D01*
X013380Y007600D02*
X012820Y007600D01*
X012820Y006600D02*
X013380Y006600D01*
X013380Y005600D02*
X012820Y005600D01*
X012820Y004600D02*
X013380Y004600D01*
X013380Y003600D02*
X012820Y003600D01*
X012820Y002600D02*
X013380Y002600D01*
X013380Y001600D02*
X012820Y001600D01*
X007380Y001600D02*
X006820Y001600D01*
X006820Y002600D02*
X007380Y002600D01*
X007380Y003600D02*
X006820Y003600D01*
X006820Y004600D02*
X007380Y004600D01*
X007380Y005600D02*
X006820Y005600D01*
X006820Y006600D02*
X007380Y006600D01*
X007380Y007600D02*
X006820Y007600D01*
X006820Y008600D02*
X007380Y008600D01*
X007380Y009600D02*
X006820Y009600D01*
X006820Y010600D02*
X007380Y010600D01*
X007380Y011600D02*
X006820Y011600D01*
X006820Y012600D02*
X007380Y012600D01*
X007380Y013600D02*
X006820Y013600D01*
X006820Y014600D02*
X007380Y014600D01*
X007380Y015600D02*
X006820Y015600D01*
X006820Y016600D02*
X007380Y016600D01*
X007380Y017600D02*
X006820Y017600D01*
X006820Y018600D02*
X007380Y018600D01*
X007380Y019600D02*
X006820Y019600D01*
X006820Y020600D02*
X007380Y020600D01*
X012820Y020600D02*
X013380Y020600D01*
X013380Y019600D02*
X012820Y019600D01*
X012820Y018600D02*
X013380Y018600D01*
X013380Y017600D02*
X012820Y017600D01*
X012820Y016600D02*
X013380Y016600D01*
X013380Y015600D02*
X012820Y015600D01*
X012820Y014600D02*
X013380Y014600D01*
X013380Y013600D02*
X012820Y013600D01*
X012820Y012600D02*
X013380Y012600D01*
X013380Y011600D02*
X012820Y011600D01*
X012820Y010600D02*
X013380Y010600D01*
X013380Y009600D02*
X012820Y009600D01*
X012820Y008600D02*
X013380Y008600D01*
X018820Y008100D02*
X019380Y008100D01*
X019380Y009100D02*
X018820Y009100D01*
X018820Y010100D02*
X019380Y010100D01*
X019380Y011100D02*
X018820Y011100D01*
X018820Y012100D02*
X019380Y012100D01*
X019380Y013100D02*
X018820Y013100D01*
X018820Y014100D02*
X019380Y014100D01*
X019380Y015100D02*
X018820Y015100D01*
X018820Y016100D02*
X019380Y016100D01*
X019380Y017100D02*
X018820Y017100D01*
X018820Y018100D02*
X019380Y018100D01*
X019380Y019100D02*
X018820Y019100D01*
X018820Y020100D02*
X019380Y020100D01*
X019380Y021100D02*
X018820Y021100D01*
X021820Y020100D02*
X022380Y020100D01*
X022380Y019100D02*
X021820Y019100D01*
X021820Y018100D02*
X022380Y018100D01*
X022380Y017100D02*
X021820Y017100D01*
X021820Y016100D02*
X022380Y016100D01*
X022380Y015100D02*
X021820Y015100D01*
X021820Y014100D02*
X022380Y014100D01*
X022380Y013100D02*
X021820Y013100D01*
X021820Y012100D02*
X022380Y012100D01*
X022380Y011100D02*
X021820Y011100D01*
X021820Y010100D02*
X022380Y010100D01*
X022380Y009100D02*
X021820Y009100D01*
X001880Y008600D02*
X001320Y008600D01*
X001320Y009600D02*
X001880Y009600D01*
X001880Y010600D02*
X001320Y010600D01*
X001320Y011600D02*
X001880Y011600D01*
X001880Y012600D02*
X001320Y012600D01*
X001320Y014600D02*
X001880Y014600D01*
X001880Y015600D02*
X001320Y015600D01*
X001320Y016600D02*
X001880Y016600D01*
X001880Y017600D02*
X001320Y017600D01*
X001320Y018600D02*
X001880Y018600D01*
X001880Y019600D02*
X001320Y019600D01*
X001320Y020600D02*
X001880Y020600D01*
X001880Y021600D02*
X001320Y021600D01*
X001320Y022600D02*
X001880Y022600D01*
X001880Y023600D02*
X001320Y023600D01*
X001320Y024600D02*
X001880Y024600D01*
X001880Y025600D02*
X001320Y025600D01*
X001320Y007600D02*
X001880Y007600D01*
X001880Y006600D02*
X001320Y006600D01*
X001320Y005600D02*
X001880Y005600D01*
X001880Y004600D02*
X001320Y004600D01*
X001320Y003600D02*
X001880Y003600D01*
X001880Y002600D02*
X001320Y002600D01*
X001320Y001600D02*
X001880Y001600D01*
D12*
X003100Y014600D03*
X003100Y016600D03*
X003100Y018600D03*
X003100Y020600D03*
X004100Y022600D03*
X004100Y024600D03*
X007100Y024600D03*
X007100Y022600D03*
X005100Y020600D03*
X005100Y018600D03*
X005100Y016600D03*
X005100Y014600D03*
D13*
X006600Y026600D03*
X021100Y022600D03*
D14*
X022280Y005100D02*
X022920Y005100D01*
X022920Y004100D02*
X022280Y004100D01*
X022280Y003100D02*
X022920Y003100D01*
X022920Y002100D02*
X022280Y002100D01*
D15*
X019100Y004100D03*
X016100Y004100D03*
D16*
X009940Y024100D02*
X009260Y024100D01*
X009260Y025100D02*
X009940Y025100D01*
X009940Y026100D02*
X009260Y026100D01*
D17*
X009600Y024100D02*
X012100Y021600D01*
X012100Y018600D01*
X013100Y017600D01*
X014600Y019600D02*
X016100Y021100D01*
X016100Y020100D02*
X015100Y019100D01*
X015100Y014600D01*
X013100Y012600D01*
X013100Y013600D02*
X014600Y015100D01*
X014600Y019600D01*
X019100Y014100D02*
X021100Y016100D01*
X021100Y022600D01*
X007100Y024600D02*
X003100Y020600D01*
X003100Y018600D01*
X001600Y018600D01*
X001600Y019600D02*
X002600Y020600D01*
X002600Y021100D01*
X004100Y022600D01*
X003600Y024600D02*
X003600Y025100D01*
X006100Y027600D01*
X003600Y024600D02*
X001600Y022600D01*
X001600Y019600D02*
X000600Y018600D01*
X000600Y013600D01*
X001600Y012600D01*
X001600Y011600D02*
X003100Y013100D01*
X003100Y014600D01*
X003100Y016600D01*
X003100Y018600D01*
X004600Y020100D02*
X005100Y020600D01*
X004600Y020100D02*
X004600Y005600D01*
X001600Y002600D01*
X001600Y001600D02*
X005100Y005100D01*
X005100Y014600D01*
X005600Y014100D02*
X007100Y012600D01*
X006100Y011600D01*
X005600Y014100D02*
X005600Y016100D01*
X005100Y016600D01*
X005600Y016600D02*
X005600Y018100D01*
X005100Y018600D01*
X001600Y004600D02*
X000600Y003600D01*
X000600Y001600D01*
X001100Y001100D01*
X018100Y005100D02*
X019100Y004100D01*
X022600Y003100D02*
X023600Y004100D01*
D18*
X023600Y022600D01*
X018600Y027600D01*
X006100Y027600D01*
X008600Y024600D02*
X008600Y023100D01*
X008100Y022600D01*
X007100Y022600D01*
X005600Y020600D02*
X005100Y020600D01*
X005600Y020600D02*
X006100Y020100D01*
X006100Y019600D01*
X006600Y019100D01*
X007600Y019100D01*
X008100Y018600D01*
X008100Y015600D01*
X007100Y014600D01*
X007100Y013600D02*
X006600Y013600D01*
X006100Y014100D01*
X006100Y016100D01*
X005600Y016600D01*
X006100Y011600D02*
X006100Y005100D01*
X002100Y001100D01*
X001100Y001100D01*
X001600Y003600D02*
X004100Y006100D01*
X004100Y009100D01*
X013100Y010600D02*
X014100Y010600D01*
X014600Y010100D01*
X014600Y008600D01*
X018100Y005100D01*
X008600Y024600D02*
X009100Y025100D01*
X009600Y025100D01*
D19*
X004100Y009100D03*
M02*
