G75*
%MOIN*%
%OFA0B0*%
%FSLAX24Y24*%
%IPPOS*%
%LPD*%
%AMOC8*
5,1,8,0,0,1.08239X$1,22.5*
%
%ADD10C,0.0030*%
%ADD11C,0.0040*%
%ADD12C,0.0060*%
%ADD13C,0.0080*%
%ADD14C,0.0100*%
%ADD15C,0.0050*%
%ADD16C,0.0020*%
%ADD17R,0.0250X0.0300*%
%ADD18R,0.1100X0.0500*%
%ADD19C,0.0120*%
D10*
X011115Y000615D02*
X011115Y000862D01*
X011238Y000985D01*
X011362Y000862D01*
X011362Y000615D01*
X011483Y000615D02*
X011483Y000985D01*
X011362Y000800D02*
X011115Y000800D01*
X011483Y000615D02*
X011730Y000615D01*
X011852Y000800D02*
X012099Y000800D01*
X012220Y000738D02*
X012467Y000985D01*
X012588Y000985D02*
X012588Y000615D01*
X012467Y000615D02*
X012282Y000800D01*
X012220Y000985D02*
X012220Y000615D01*
X012588Y000800D02*
X012835Y000800D01*
X012957Y000800D02*
X013203Y000800D01*
X013203Y000862D02*
X013203Y000615D01*
X013325Y000615D02*
X013325Y000985D01*
X013203Y000862D02*
X013080Y000985D01*
X012957Y000862D01*
X012957Y000615D01*
X012835Y000615D02*
X012835Y000985D01*
X013325Y000615D02*
X013572Y000615D01*
X013693Y000615D02*
X013693Y000862D01*
X013817Y000985D01*
X013940Y000862D01*
X013940Y000615D01*
X014062Y000615D02*
X014062Y000985D01*
X014308Y000985D01*
X014185Y000800D02*
X014062Y000800D01*
X013940Y000800D02*
X013693Y000800D01*
X014615Y000800D02*
X014800Y000800D01*
X014862Y000738D01*
X014862Y000677D01*
X014800Y000615D01*
X014615Y000615D01*
X014615Y000985D01*
X014800Y000985D01*
X014862Y000924D01*
X014862Y000862D01*
X014800Y000800D01*
X014983Y000677D02*
X015045Y000615D01*
X015168Y000615D01*
X015230Y000677D01*
X015230Y000924D01*
X015168Y000985D01*
X015045Y000985D01*
X014983Y000924D01*
X014983Y000677D01*
X015352Y000615D02*
X015352Y000985D01*
X015599Y000615D01*
X015599Y000985D01*
X015720Y000985D02*
X015720Y000615D01*
X015967Y000615D01*
X016088Y000677D02*
X016150Y000615D01*
X016273Y000615D01*
X016335Y000677D01*
X016335Y000738D01*
X016273Y000800D01*
X016150Y000800D01*
X016088Y000862D01*
X016088Y000924D01*
X016150Y000985D01*
X016273Y000985D01*
X016335Y000924D01*
X016457Y000985D02*
X016703Y000985D01*
X016825Y000985D02*
X016825Y000615D01*
X017072Y000615D01*
X017193Y000615D02*
X017193Y000985D01*
X017440Y000985D01*
X017562Y000985D02*
X017562Y000615D01*
X017808Y000615D01*
X018115Y000677D02*
X018115Y000924D01*
X018177Y000985D01*
X018300Y000985D01*
X018362Y000924D01*
X018483Y000985D02*
X018483Y000615D01*
X018730Y000615D01*
X018852Y000615D02*
X019099Y000615D01*
X019220Y000615D02*
X019343Y000615D01*
X019282Y000615D02*
X019282Y000985D01*
X019343Y000985D02*
X019220Y000985D01*
X019465Y000862D02*
X019465Y000615D01*
X019465Y000800D02*
X019712Y000800D01*
X019712Y000862D02*
X019712Y000615D01*
X019834Y000615D02*
X019834Y000985D01*
X020081Y000615D01*
X020081Y000985D01*
X020202Y000924D02*
X020202Y000677D01*
X020264Y000615D01*
X020387Y000615D01*
X020449Y000677D01*
X020449Y000924D01*
X020387Y000985D01*
X020264Y000985D01*
X020202Y000924D01*
X019712Y000862D02*
X019589Y000985D01*
X019465Y000862D01*
X018852Y000985D02*
X018852Y000615D01*
X018607Y000800D02*
X018483Y000800D01*
X018362Y000677D02*
X018300Y000615D01*
X018177Y000615D01*
X018115Y000677D01*
X018483Y000985D02*
X018730Y000985D01*
X017440Y000615D02*
X017193Y000615D01*
X017193Y000800D02*
X017317Y000800D01*
X017072Y000985D02*
X016825Y000985D01*
X016825Y000800D02*
X016948Y000800D01*
X016580Y000615D02*
X016580Y000985D01*
X015967Y000985D02*
X015720Y000985D01*
X015720Y000800D02*
X015843Y000800D01*
X021115Y000615D02*
X021115Y000985D01*
X021238Y000862D01*
X021362Y000985D01*
X021362Y000615D01*
X021483Y000615D02*
X021483Y000862D01*
X021607Y000985D01*
X021730Y000862D01*
X021730Y000615D01*
X021852Y000615D02*
X021852Y000985D01*
X021852Y000800D02*
X022099Y000800D01*
X022220Y000677D02*
X022282Y000615D01*
X022405Y000615D01*
X022467Y000677D01*
X022467Y000924D01*
X022405Y000985D01*
X022282Y000985D01*
X022220Y000924D01*
X022220Y000677D01*
X022099Y000615D02*
X022099Y000985D01*
X021730Y000800D02*
X021483Y000800D01*
X022588Y000615D02*
X022588Y000985D01*
X022835Y000615D01*
X022835Y000985D01*
X022957Y000985D02*
X022957Y000924D01*
X023080Y000800D01*
X023080Y000615D01*
X023080Y000800D02*
X023203Y000924D01*
X023203Y000985D01*
X021390Y009115D02*
X021390Y009405D01*
X021294Y009405D02*
X021487Y009405D01*
X021192Y009115D02*
X020999Y009115D01*
X020999Y009405D01*
X020898Y009357D02*
X020898Y009260D01*
X020849Y009212D01*
X020704Y009212D01*
X020704Y009115D02*
X020704Y009405D01*
X020849Y009405D01*
X020898Y009357D01*
X020603Y009405D02*
X020603Y009115D01*
X020410Y009115D02*
X020410Y009405D01*
X020506Y009308D01*
X020603Y009405D01*
X020308Y009357D02*
X020260Y009405D01*
X020163Y009405D01*
X020115Y009357D01*
X020115Y009163D01*
X020163Y009115D01*
X020260Y009115D01*
X020308Y009163D01*
X020260Y010115D02*
X020163Y010115D01*
X020115Y010163D01*
X020163Y010260D02*
X020260Y010260D01*
X020308Y010212D01*
X020308Y010163D01*
X020260Y010115D01*
X020163Y010260D02*
X020115Y010308D01*
X020115Y010357D01*
X020163Y010405D01*
X020260Y010405D01*
X020308Y010357D01*
X020410Y010405D02*
X020603Y010405D01*
X020506Y010405D02*
X020506Y010115D01*
X020704Y010115D02*
X020704Y010405D01*
X020849Y010405D01*
X020898Y010357D01*
X020898Y010260D01*
X020849Y010212D01*
X020704Y010212D01*
X020801Y010212D02*
X020898Y010115D01*
X020999Y010163D02*
X021047Y010115D01*
X021144Y010115D01*
X021192Y010163D01*
X021192Y010260D01*
X021144Y010308D01*
X021096Y010308D01*
X020999Y010260D01*
X020999Y010405D01*
X021192Y010405D01*
X021144Y011115D02*
X021144Y011405D01*
X020999Y011260D01*
X021192Y011260D01*
X020898Y011260D02*
X020849Y011212D01*
X020704Y011212D01*
X020704Y011115D02*
X020704Y011405D01*
X020849Y011405D01*
X020898Y011357D01*
X020898Y011260D01*
X020801Y011212D02*
X020898Y011115D01*
X020603Y011405D02*
X020410Y011405D01*
X020506Y011405D02*
X020506Y011115D01*
X020308Y011163D02*
X020260Y011115D01*
X020163Y011115D01*
X020115Y011163D01*
X020163Y011260D02*
X020260Y011260D01*
X020308Y011212D01*
X020308Y011163D01*
X020163Y011260D02*
X020115Y011308D01*
X020115Y011357D01*
X020163Y011405D01*
X020260Y011405D01*
X020308Y011357D01*
X020260Y012115D02*
X020163Y012115D01*
X020115Y012163D01*
X020163Y012260D02*
X020260Y012260D01*
X020308Y012212D01*
X020308Y012163D01*
X020260Y012115D01*
X020163Y012260D02*
X020115Y012308D01*
X020115Y012357D01*
X020163Y012405D01*
X020260Y012405D01*
X020308Y012357D01*
X020410Y012405D02*
X020603Y012405D01*
X020506Y012405D02*
X020506Y012115D01*
X020704Y012115D02*
X020704Y012405D01*
X020849Y012405D01*
X020898Y012357D01*
X020898Y012260D01*
X020849Y012212D01*
X020704Y012212D01*
X020801Y012212D02*
X020898Y012115D01*
X020999Y012163D02*
X021047Y012115D01*
X021144Y012115D01*
X021192Y012163D01*
X021192Y012212D01*
X021144Y012260D01*
X021096Y012260D01*
X021144Y012260D02*
X021192Y012308D01*
X021192Y012357D01*
X021144Y012405D01*
X021047Y012405D01*
X020999Y012357D01*
X020999Y013115D02*
X021192Y013308D01*
X021192Y013357D01*
X021144Y013405D01*
X021047Y013405D01*
X020999Y013357D01*
X020898Y013357D02*
X020898Y013260D01*
X020849Y013212D01*
X020704Y013212D01*
X020704Y013115D02*
X020704Y013405D01*
X020849Y013405D01*
X020898Y013357D01*
X020801Y013212D02*
X020898Y013115D01*
X020999Y013115D02*
X021192Y013115D01*
X020603Y013405D02*
X020410Y013405D01*
X020506Y013405D02*
X020506Y013115D01*
X020308Y013163D02*
X020260Y013115D01*
X020163Y013115D01*
X020115Y013163D01*
X020163Y013260D02*
X020260Y013260D01*
X020308Y013212D01*
X020308Y013163D01*
X020163Y013260D02*
X020115Y013308D01*
X020115Y013357D01*
X020163Y013405D01*
X020260Y013405D01*
X020308Y013357D01*
X020260Y014115D02*
X020163Y014115D01*
X020115Y014163D01*
X020163Y014260D02*
X020260Y014260D01*
X020308Y014212D01*
X020308Y014163D01*
X020260Y014115D01*
X020163Y014260D02*
X020115Y014308D01*
X020115Y014357D01*
X020163Y014405D01*
X020260Y014405D01*
X020308Y014357D01*
X020410Y014405D02*
X020603Y014405D01*
X020506Y014405D02*
X020506Y014115D01*
X020704Y014115D02*
X020704Y014405D01*
X020849Y014405D01*
X020898Y014357D01*
X020898Y014260D01*
X020849Y014212D01*
X020704Y014212D01*
X020801Y014212D02*
X020898Y014115D01*
X020999Y014115D02*
X021192Y014115D01*
X021096Y014115D02*
X021096Y014405D01*
X020999Y014308D01*
X020898Y015115D02*
X020801Y015212D01*
X020849Y015212D02*
X020704Y015212D01*
X020704Y015115D02*
X020704Y015405D01*
X020849Y015405D01*
X020898Y015357D01*
X020898Y015260D01*
X020849Y015212D01*
X020603Y015163D02*
X020603Y015357D01*
X020555Y015405D01*
X020410Y015405D01*
X020410Y015115D01*
X020555Y015115D01*
X020603Y015163D01*
X020308Y015405D02*
X020115Y015405D01*
X020115Y015115D01*
X020115Y015260D02*
X020212Y015260D01*
X020115Y016115D02*
X020115Y016405D01*
X020308Y016405D01*
X020410Y016405D02*
X020410Y016115D01*
X020555Y016115D01*
X020603Y016163D01*
X020603Y016357D01*
X020555Y016405D01*
X020410Y016405D01*
X020212Y016260D02*
X020115Y016260D01*
X020704Y016115D02*
X020704Y016405D01*
X020801Y016308D01*
X020898Y016405D01*
X020898Y016115D01*
X020898Y017115D02*
X020801Y017212D01*
X020849Y017212D02*
X020704Y017212D01*
X020704Y017115D02*
X020704Y017405D01*
X020849Y017405D01*
X020898Y017357D01*
X020898Y017260D01*
X020849Y017212D01*
X020603Y017163D02*
X020603Y017357D01*
X020555Y017405D01*
X020410Y017405D01*
X020410Y017115D01*
X020555Y017115D01*
X020603Y017163D01*
X020308Y017405D02*
X020115Y017405D01*
X020115Y017115D01*
X020115Y017260D02*
X020212Y017260D01*
X020260Y018115D02*
X020163Y018115D01*
X020115Y018163D01*
X020163Y018260D02*
X020260Y018260D01*
X020308Y018212D01*
X020308Y018163D01*
X020260Y018115D01*
X020410Y018115D02*
X020410Y018405D01*
X020555Y018405D01*
X020603Y018357D01*
X020603Y018260D01*
X020555Y018212D01*
X020410Y018212D01*
X020506Y018212D02*
X020603Y018115D01*
X020704Y018212D02*
X020801Y018115D01*
X020898Y018212D01*
X020898Y018405D01*
X020999Y018405D02*
X021144Y018405D01*
X021192Y018357D01*
X021192Y018260D01*
X021144Y018212D01*
X020999Y018212D01*
X021096Y018212D02*
X021192Y018115D01*
X020999Y018115D02*
X020999Y018405D01*
X020704Y018405D02*
X020704Y018212D01*
X020308Y018357D02*
X020260Y018405D01*
X020163Y018405D01*
X020115Y018357D01*
X020115Y018308D01*
X020163Y018260D01*
X020163Y019115D02*
X020115Y019163D01*
X020163Y019115D02*
X020260Y019115D01*
X020308Y019163D01*
X020308Y019212D01*
X020260Y019260D01*
X020163Y019260D01*
X020115Y019308D01*
X020115Y019357D01*
X020163Y019405D01*
X020260Y019405D01*
X020308Y019357D01*
X020410Y019405D02*
X020410Y019115D01*
X020410Y019212D02*
X020555Y019212D01*
X020603Y019260D01*
X020603Y019357D01*
X020555Y019405D01*
X020410Y019405D01*
X020506Y019212D02*
X020603Y019115D01*
X020704Y019212D02*
X020801Y019115D01*
X020898Y019212D01*
X020898Y019405D01*
X020999Y019405D02*
X021096Y019308D01*
X021192Y019405D01*
X021192Y019115D01*
X020999Y019115D02*
X020999Y019405D01*
X020704Y019405D02*
X020704Y019212D01*
X020801Y020115D02*
X020898Y020212D01*
X020898Y020405D01*
X020999Y020405D02*
X020999Y020115D01*
X021192Y020115D01*
X020801Y020115D02*
X020704Y020212D01*
X020704Y020405D01*
X020603Y020357D02*
X020603Y020260D01*
X020555Y020212D01*
X020410Y020212D01*
X020506Y020212D02*
X020603Y020115D01*
X020410Y020115D02*
X020410Y020405D01*
X020555Y020405D01*
X020603Y020357D01*
X020308Y020357D02*
X020260Y020405D01*
X020163Y020405D01*
X020115Y020357D01*
X020115Y020308D01*
X020163Y020260D01*
X020260Y020260D01*
X020308Y020212D01*
X020308Y020163D01*
X020260Y020115D01*
X020163Y020115D01*
X020115Y020163D01*
X002585Y020037D02*
X002585Y019852D01*
X002215Y019852D01*
X002215Y020037D01*
X002276Y020099D01*
X002523Y020099D01*
X002585Y020037D01*
X002585Y019730D02*
X002215Y019730D01*
X002215Y019483D02*
X002585Y019730D01*
X002585Y019483D02*
X002215Y019483D01*
X002276Y019362D02*
X002215Y019300D01*
X002215Y019177D01*
X002276Y019115D01*
X002523Y019115D01*
X002585Y019177D01*
X002585Y019300D01*
X002523Y019362D01*
X002400Y019362D01*
X002400Y019238D01*
X002462Y018599D02*
X002215Y018599D01*
X002462Y018599D02*
X002585Y018475D01*
X002462Y018352D01*
X002215Y018352D01*
X002215Y018230D02*
X002215Y017983D01*
X002400Y017983D01*
X002338Y018107D01*
X002338Y018168D01*
X002400Y018230D01*
X002523Y018230D01*
X002585Y018168D01*
X002585Y018045D01*
X002523Y017983D01*
X002400Y017862D02*
X002400Y017615D01*
X002523Y017738D02*
X002276Y017738D01*
X002215Y017282D02*
X002153Y017282D01*
X002338Y017282D02*
X002585Y017282D01*
X002585Y017343D02*
X002585Y017220D01*
X002647Y017099D02*
X002647Y016852D01*
X002585Y016730D02*
X002585Y016483D01*
X002585Y016362D02*
X002462Y016238D01*
X002462Y016300D02*
X002462Y016115D01*
X002585Y016115D02*
X002215Y016115D01*
X002215Y016300D01*
X002276Y016362D01*
X002400Y016362D01*
X002462Y016300D01*
X002338Y016483D02*
X002215Y016607D01*
X002585Y016607D01*
X002338Y017220D02*
X002338Y017282D01*
X002215Y022115D02*
X002215Y022300D01*
X002276Y022362D01*
X002400Y022362D01*
X002462Y022300D01*
X002462Y022115D01*
X002585Y022115D02*
X002215Y022115D01*
X002462Y022238D02*
X002585Y022362D01*
X002585Y022483D02*
X002585Y022730D01*
X002585Y022607D02*
X002215Y022607D01*
X002338Y022483D01*
X002647Y022852D02*
X002647Y023099D01*
X002523Y023220D02*
X002400Y023220D01*
X002338Y023282D01*
X002338Y023405D01*
X002400Y023467D01*
X002523Y023467D01*
X002585Y023405D01*
X002585Y023282D01*
X002523Y023220D01*
D11*
X002697Y012580D02*
X002620Y012504D01*
X002620Y012197D01*
X002697Y012120D01*
X002850Y012120D01*
X002927Y012197D01*
X002927Y012350D01*
X002773Y012350D01*
X002927Y012504D02*
X002850Y012580D01*
X002697Y012580D01*
X003080Y012580D02*
X003387Y012120D01*
X003387Y012580D01*
X003541Y012580D02*
X003771Y012580D01*
X003848Y012504D01*
X003848Y012197D01*
X003771Y012120D01*
X003541Y012120D01*
X003541Y012580D01*
X003080Y012580D02*
X003080Y012120D01*
X003080Y011580D02*
X003080Y011350D01*
X003234Y011427D01*
X003311Y011427D01*
X003387Y011350D01*
X003387Y011197D01*
X003311Y011120D01*
X003157Y011120D01*
X003080Y011197D01*
X002927Y011350D02*
X002620Y011350D01*
X002773Y011197D02*
X002773Y011504D01*
X003080Y011580D02*
X003387Y011580D01*
X003541Y011580D02*
X003541Y011273D01*
X003694Y011120D01*
X003848Y011273D01*
X003848Y011580D01*
X003848Y009580D02*
X003541Y009580D01*
X003694Y009580D02*
X003694Y009120D01*
X003387Y009197D02*
X003387Y009504D01*
X003311Y009580D01*
X003157Y009580D01*
X003080Y009504D01*
X003080Y009197D01*
X003157Y009120D01*
X003311Y009120D01*
X003387Y009197D01*
X002927Y009350D02*
X002850Y009273D01*
X002620Y009273D01*
X002620Y009120D02*
X002620Y009580D01*
X002850Y009580D01*
X002927Y009504D01*
X002927Y009350D01*
X002850Y008580D02*
X002620Y008580D01*
X002620Y008120D01*
X002620Y008273D02*
X002850Y008273D01*
X002927Y008350D01*
X002927Y008504D01*
X002850Y008580D01*
X003080Y008504D02*
X003080Y008427D01*
X003157Y008350D01*
X003311Y008350D01*
X003387Y008273D01*
X003387Y008197D01*
X003311Y008120D01*
X003157Y008120D01*
X003080Y008197D01*
X002927Y008120D02*
X002773Y008273D01*
X003080Y008504D02*
X003157Y008580D01*
X003311Y008580D01*
X003387Y008504D01*
X003541Y008580D02*
X003848Y008580D01*
X003694Y008580D02*
X003694Y008120D01*
X003541Y007580D02*
X003541Y007120D01*
X003848Y007120D01*
X004001Y007043D02*
X004308Y007043D01*
X004462Y007120D02*
X004768Y007120D01*
X004462Y007120D02*
X004462Y007580D01*
X004462Y006580D02*
X004615Y006427D01*
X004768Y006580D01*
X004768Y006120D01*
X004462Y006120D02*
X004462Y006580D01*
X004308Y006043D02*
X004001Y006043D01*
X003848Y006120D02*
X003541Y006120D01*
X003541Y006580D01*
X003387Y006504D02*
X003311Y006580D01*
X003157Y006580D01*
X003080Y006504D01*
X003080Y006197D01*
X003157Y006120D01*
X003311Y006120D01*
X003387Y006197D01*
X003387Y006504D01*
X002927Y006504D02*
X002850Y006580D01*
X002697Y006580D01*
X002620Y006504D01*
X002620Y006197D01*
X002697Y006120D01*
X002850Y006120D01*
X002927Y006197D01*
X002850Y005580D02*
X002697Y005580D01*
X002620Y005504D01*
X002620Y005197D01*
X002697Y005120D01*
X002850Y005120D01*
X002927Y005197D01*
X003080Y005197D02*
X003157Y005120D01*
X003311Y005120D01*
X003387Y005197D01*
X003387Y005504D01*
X003311Y005580D01*
X003157Y005580D01*
X003080Y005504D01*
X003080Y005197D01*
X002927Y005504D02*
X002850Y005580D01*
X003541Y005580D02*
X003541Y005120D01*
X003848Y005120D01*
X004001Y005043D02*
X004308Y005043D01*
X004462Y005120D02*
X004462Y005580D01*
X004692Y005580D01*
X004768Y005504D01*
X004768Y005350D01*
X004692Y005273D01*
X004462Y005273D01*
X004615Y005273D02*
X004768Y005120D01*
X003387Y004350D02*
X003080Y004350D01*
X003311Y004580D01*
X003311Y004120D01*
X002927Y004120D02*
X002773Y004273D01*
X002850Y004273D02*
X002620Y004273D01*
X002620Y004120D02*
X002620Y004580D01*
X002850Y004580D01*
X002927Y004504D01*
X002927Y004350D01*
X002850Y004273D01*
X002850Y003580D02*
X002620Y003580D01*
X002620Y003120D01*
X002620Y003273D02*
X002850Y003273D01*
X002927Y003350D01*
X002927Y003504D01*
X002850Y003580D01*
X003080Y003504D02*
X003157Y003580D01*
X003311Y003580D01*
X003387Y003504D01*
X003387Y003427D01*
X003311Y003350D01*
X003387Y003273D01*
X003387Y003197D01*
X003311Y003120D01*
X003157Y003120D01*
X003080Y003197D01*
X002927Y003120D02*
X002773Y003273D01*
X003234Y003350D02*
X003311Y003350D01*
X003311Y002580D02*
X003157Y002580D01*
X003080Y002504D01*
X002927Y002504D02*
X002927Y002350D01*
X002850Y002273D01*
X002620Y002273D01*
X002620Y002120D02*
X002620Y002580D01*
X002850Y002580D01*
X002927Y002504D01*
X002773Y002273D02*
X002927Y002120D01*
X003080Y002120D02*
X003387Y002427D01*
X003387Y002504D01*
X003311Y002580D01*
X003387Y002120D02*
X003080Y002120D01*
X003234Y001580D02*
X003234Y001120D01*
X003387Y001120D02*
X003080Y001120D01*
X002927Y001120D02*
X002773Y001273D01*
X002850Y001273D02*
X002620Y001273D01*
X002620Y001120D02*
X002620Y001580D01*
X002850Y001580D01*
X002927Y001504D01*
X002927Y001350D01*
X002850Y001273D01*
X003080Y001427D02*
X003234Y001580D01*
X003311Y007120D02*
X003387Y007197D01*
X003387Y007504D01*
X003311Y007580D01*
X003157Y007580D01*
X003080Y007504D01*
X003080Y007197D01*
X003157Y007120D01*
X003311Y007120D01*
X002927Y007197D02*
X002850Y007120D01*
X002697Y007120D01*
X002620Y007197D01*
X002620Y007504D01*
X002697Y007580D01*
X002850Y007580D01*
X002927Y007504D01*
D12*
X001100Y002000D02*
X001100Y001100D01*
X002100Y001100D01*
X002100Y002000D01*
X002000Y002100D01*
X002100Y002200D01*
X002100Y003000D01*
X002000Y003100D01*
X002100Y003200D01*
X002100Y004000D01*
X002000Y004100D01*
X002100Y004200D01*
X002100Y005000D01*
X002000Y005100D01*
X002100Y005200D01*
X002100Y006000D01*
X002000Y006100D01*
X002100Y006200D01*
X002100Y007000D01*
X002000Y007100D01*
X002100Y007200D01*
X002100Y008000D01*
X002000Y008100D01*
X002100Y008200D01*
X002100Y009000D01*
X002000Y009100D01*
X002100Y009200D01*
X002100Y010000D01*
X002000Y010100D01*
X002100Y010200D01*
X002100Y011000D01*
X002000Y011100D01*
X002100Y011200D01*
X002100Y012000D01*
X002000Y012100D01*
X002100Y012200D01*
X002100Y013100D01*
X001100Y013100D01*
X001100Y012200D01*
X001200Y012100D01*
X001100Y012000D01*
X001100Y011200D01*
X001200Y011100D01*
X001100Y011000D01*
X001100Y010200D01*
X001200Y010100D01*
X001100Y010000D01*
X001100Y009200D01*
X001200Y009100D01*
X001100Y009000D01*
X001100Y008200D01*
X001200Y008100D01*
X001100Y008000D01*
X001100Y007200D01*
X001200Y007100D01*
X001100Y007000D01*
X001100Y006200D01*
X001200Y006100D01*
X001100Y006000D01*
X001100Y005200D01*
X001200Y005100D01*
X001100Y005000D01*
X001100Y004200D01*
X001200Y004100D01*
X001100Y004000D01*
X001100Y003200D01*
X001200Y003100D01*
X001100Y003000D01*
X001100Y002200D01*
X001200Y002100D01*
X001100Y002000D01*
X007450Y001100D02*
X012750Y001100D01*
X012750Y021100D01*
X010450Y021100D01*
X010448Y021061D01*
X010442Y021022D01*
X010433Y020984D01*
X010420Y020947D01*
X010403Y020911D01*
X010383Y020878D01*
X010359Y020846D01*
X010333Y020817D01*
X010304Y020791D01*
X010272Y020767D01*
X010239Y020747D01*
X010203Y020730D01*
X010166Y020717D01*
X010128Y020708D01*
X010089Y020702D01*
X010050Y020700D01*
X010011Y020702D01*
X009972Y020708D01*
X009934Y020717D01*
X009897Y020730D01*
X009861Y020747D01*
X009828Y020767D01*
X009796Y020791D01*
X009767Y020817D01*
X009741Y020846D01*
X009717Y020878D01*
X009697Y020911D01*
X009680Y020947D01*
X009667Y020984D01*
X009658Y021022D01*
X009652Y021061D01*
X009650Y021100D01*
X007450Y021100D01*
X007450Y001100D01*
X016450Y007600D02*
X018750Y007600D01*
X018750Y021600D01*
X018000Y021600D01*
X017998Y021561D01*
X017992Y021522D01*
X017983Y021484D01*
X017970Y021447D01*
X017953Y021411D01*
X017933Y021378D01*
X017909Y021346D01*
X017883Y021317D01*
X017854Y021291D01*
X017822Y021267D01*
X017789Y021247D01*
X017753Y021230D01*
X017716Y021217D01*
X017678Y021208D01*
X017639Y021202D01*
X017600Y021200D01*
X017561Y021202D01*
X017522Y021208D01*
X017484Y021217D01*
X017447Y021230D01*
X017411Y021247D01*
X017378Y021267D01*
X017346Y021291D01*
X017317Y021317D01*
X017291Y021346D01*
X017267Y021378D01*
X017247Y021411D01*
X017230Y021447D01*
X017217Y021484D01*
X017208Y021522D01*
X017202Y021561D01*
X017200Y021600D01*
X016450Y021600D01*
X016450Y007600D01*
X018600Y005300D02*
X018602Y005344D01*
X018608Y005388D01*
X018618Y005431D01*
X018631Y005473D01*
X018648Y005514D01*
X018669Y005553D01*
X018693Y005590D01*
X018720Y005625D01*
X018750Y005657D01*
X018783Y005687D01*
X018819Y005713D01*
X018856Y005737D01*
X018896Y005756D01*
X018937Y005773D01*
X018980Y005785D01*
X019023Y005794D01*
X019067Y005799D01*
X019111Y005800D01*
X019155Y005797D01*
X019199Y005790D01*
X019242Y005779D01*
X019284Y005765D01*
X019324Y005747D01*
X019363Y005725D01*
X019399Y005701D01*
X019433Y005673D01*
X019465Y005642D01*
X019494Y005608D01*
X019520Y005572D01*
X019542Y005534D01*
X019561Y005494D01*
X019576Y005452D01*
X019588Y005410D01*
X019596Y005366D01*
X019600Y005322D01*
X019600Y005278D01*
X019596Y005234D01*
X019588Y005190D01*
X019576Y005148D01*
X019561Y005106D01*
X019542Y005066D01*
X019520Y005028D01*
X019494Y004992D01*
X019465Y004958D01*
X019433Y004927D01*
X019399Y004899D01*
X019363Y004875D01*
X019324Y004853D01*
X019284Y004835D01*
X019242Y004821D01*
X019199Y004810D01*
X019155Y004803D01*
X019111Y004800D01*
X019067Y004801D01*
X019023Y004806D01*
X018980Y004815D01*
X018937Y004827D01*
X018896Y004844D01*
X018856Y004863D01*
X018819Y004887D01*
X018783Y004913D01*
X018750Y004943D01*
X018720Y004975D01*
X018693Y005010D01*
X018669Y005047D01*
X018648Y005086D01*
X018631Y005127D01*
X018618Y005169D01*
X018608Y005212D01*
X018602Y005256D01*
X018600Y005300D01*
X017100Y004100D02*
X017102Y004144D01*
X017108Y004188D01*
X017118Y004231D01*
X017131Y004273D01*
X017148Y004314D01*
X017169Y004353D01*
X017193Y004390D01*
X017220Y004425D01*
X017250Y004457D01*
X017283Y004487D01*
X017319Y004513D01*
X017356Y004537D01*
X017396Y004556D01*
X017437Y004573D01*
X017480Y004585D01*
X017523Y004594D01*
X017567Y004599D01*
X017611Y004600D01*
X017655Y004597D01*
X017699Y004590D01*
X017742Y004579D01*
X017784Y004565D01*
X017824Y004547D01*
X017863Y004525D01*
X017899Y004501D01*
X017933Y004473D01*
X017965Y004442D01*
X017994Y004408D01*
X018020Y004372D01*
X018042Y004334D01*
X018061Y004294D01*
X018076Y004252D01*
X018088Y004210D01*
X018096Y004166D01*
X018100Y004122D01*
X018100Y004078D01*
X018096Y004034D01*
X018088Y003990D01*
X018076Y003948D01*
X018061Y003906D01*
X018042Y003866D01*
X018020Y003828D01*
X017994Y003792D01*
X017965Y003758D01*
X017933Y003727D01*
X017899Y003699D01*
X017863Y003675D01*
X017824Y003653D01*
X017784Y003635D01*
X017742Y003621D01*
X017699Y003610D01*
X017655Y003603D01*
X017611Y003600D01*
X017567Y003601D01*
X017523Y003606D01*
X017480Y003615D01*
X017437Y003627D01*
X017396Y003644D01*
X017356Y003663D01*
X017319Y003687D01*
X017283Y003713D01*
X017250Y003743D01*
X017220Y003775D01*
X017193Y003810D01*
X017169Y003847D01*
X017148Y003886D01*
X017131Y003927D01*
X017118Y003969D01*
X017108Y004012D01*
X017102Y004056D01*
X017100Y004100D01*
X014850Y004100D02*
X014852Y004205D01*
X014858Y004309D01*
X014868Y004413D01*
X014882Y004517D01*
X014900Y004620D01*
X014921Y004723D01*
X014947Y004824D01*
X014977Y004925D01*
X015010Y005024D01*
X015047Y005122D01*
X015088Y005219D01*
X015132Y005313D01*
X015180Y005406D01*
X015232Y005498D01*
X015287Y005587D01*
X015345Y005674D01*
X015406Y005758D01*
X015471Y005841D01*
X015539Y005921D01*
X015610Y005998D01*
X015683Y006072D01*
X015760Y006144D01*
X015839Y006212D01*
X015921Y006278D01*
X016005Y006340D01*
X016091Y006399D01*
X016180Y006455D01*
X016271Y006507D01*
X016363Y006556D01*
X016458Y006601D01*
X016554Y006643D01*
X016651Y006681D01*
X016750Y006715D01*
X016850Y006746D01*
X016952Y006772D01*
X017054Y006795D01*
X017157Y006814D01*
X017261Y006829D01*
X017365Y006840D01*
X017469Y006847D01*
X017574Y006850D01*
X017679Y006849D01*
X017783Y006844D01*
X017887Y006835D01*
X017991Y006822D01*
X018095Y006805D01*
X018197Y006784D01*
X018299Y006760D01*
X018400Y006731D01*
X018499Y006699D01*
X018598Y006663D01*
X018695Y006623D01*
X018790Y006579D01*
X018883Y006532D01*
X018975Y006482D01*
X019065Y006427D01*
X019152Y006370D01*
X019238Y006309D01*
X019320Y006245D01*
X019401Y006178D01*
X019479Y006108D01*
X019554Y006035D01*
X019626Y005959D01*
X019695Y005881D01*
X019762Y005800D01*
X019825Y005716D01*
X019885Y005631D01*
X019941Y005542D01*
X019995Y005452D01*
X020044Y005360D01*
X020090Y005266D01*
X020133Y005170D01*
X020172Y005073D01*
X020207Y004975D01*
X020239Y004875D01*
X020266Y004774D01*
X020290Y004672D01*
X020310Y004569D01*
X020326Y004465D01*
X020338Y004361D01*
X020346Y004257D01*
X020350Y004152D01*
X020350Y004048D01*
X020346Y003943D01*
X020338Y003839D01*
X020326Y003735D01*
X020310Y003631D01*
X020290Y003528D01*
X020266Y003426D01*
X020239Y003325D01*
X020207Y003225D01*
X020172Y003127D01*
X020133Y003030D01*
X020090Y002934D01*
X020044Y002840D01*
X019995Y002748D01*
X019941Y002658D01*
X019885Y002569D01*
X019825Y002484D01*
X019762Y002400D01*
X019695Y002319D01*
X019626Y002241D01*
X019554Y002165D01*
X019479Y002092D01*
X019401Y002022D01*
X019320Y001955D01*
X019238Y001891D01*
X019152Y001830D01*
X019065Y001773D01*
X018975Y001718D01*
X018883Y001668D01*
X018790Y001621D01*
X018695Y001577D01*
X018598Y001537D01*
X018499Y001501D01*
X018400Y001469D01*
X018299Y001440D01*
X018197Y001416D01*
X018095Y001395D01*
X017991Y001378D01*
X017887Y001365D01*
X017783Y001356D01*
X017679Y001351D01*
X017574Y001350D01*
X017469Y001353D01*
X017365Y001360D01*
X017261Y001371D01*
X017157Y001386D01*
X017054Y001405D01*
X016952Y001428D01*
X016850Y001454D01*
X016750Y001485D01*
X016651Y001519D01*
X016554Y001557D01*
X016458Y001599D01*
X016363Y001644D01*
X016271Y001693D01*
X016180Y001745D01*
X016091Y001801D01*
X016005Y001860D01*
X015921Y001922D01*
X015839Y001988D01*
X015760Y002056D01*
X015683Y002128D01*
X015610Y002202D01*
X015539Y002279D01*
X015471Y002359D01*
X015406Y002442D01*
X015345Y002526D01*
X015287Y002613D01*
X015232Y002702D01*
X015180Y002794D01*
X015132Y002887D01*
X015088Y002981D01*
X015047Y003078D01*
X015010Y003176D01*
X014977Y003275D01*
X014947Y003376D01*
X014921Y003477D01*
X014900Y003580D01*
X014882Y003683D01*
X014868Y003787D01*
X014858Y003891D01*
X014852Y003995D01*
X014850Y004100D01*
X021600Y008600D02*
X021600Y009500D01*
X021700Y009600D01*
X021600Y009700D01*
X021600Y010500D01*
X021700Y010600D01*
X021600Y010700D01*
X021600Y011500D01*
X021700Y011600D01*
X021600Y011700D01*
X021600Y012500D01*
X021700Y012600D01*
X021600Y012700D01*
X021600Y013500D01*
X021700Y013600D01*
X021600Y013700D01*
X021600Y014500D01*
X021700Y014600D01*
X021600Y014700D01*
X021600Y015500D01*
X021700Y015600D01*
X021600Y015700D01*
X021600Y016500D01*
X021700Y016600D01*
X021600Y016700D01*
X021600Y017500D01*
X021700Y017600D01*
X021600Y017700D01*
X021600Y018500D01*
X021700Y018600D01*
X021600Y018700D01*
X021600Y019500D01*
X021700Y019600D01*
X021600Y019700D01*
X021600Y020600D01*
X022600Y020600D01*
X022600Y019700D01*
X022500Y019600D01*
X022600Y019500D01*
X022600Y018700D01*
X022500Y018600D01*
X022600Y018500D01*
X022600Y017700D01*
X022500Y017600D01*
X022600Y017500D01*
X022600Y016700D01*
X022500Y016600D01*
X022600Y016500D01*
X022600Y015700D01*
X022500Y015600D01*
X022600Y015500D01*
X022600Y014700D01*
X022500Y014600D01*
X022600Y014500D01*
X022600Y013700D01*
X022500Y013600D01*
X022600Y013500D01*
X022600Y012700D01*
X022500Y012600D01*
X022600Y012500D01*
X022600Y011700D01*
X022500Y011600D01*
X022600Y011500D01*
X022600Y010700D01*
X022500Y010600D01*
X022600Y010500D01*
X022600Y009700D01*
X022500Y009600D01*
X022600Y009500D01*
X022600Y008600D01*
X021600Y008600D01*
X022350Y005600D02*
X022850Y005600D01*
X023100Y005350D01*
X023100Y004850D01*
X022850Y004600D01*
X023100Y004350D01*
X023100Y003850D01*
X022850Y003600D01*
X023100Y003350D01*
X023100Y002850D01*
X022850Y002600D01*
X023100Y002350D01*
X023100Y001850D01*
X022850Y001600D01*
X022350Y001600D01*
X022100Y001850D01*
X022100Y002350D01*
X022350Y002600D01*
X022100Y002850D01*
X022100Y003350D01*
X022350Y003600D01*
X022850Y003600D01*
X022350Y003600D02*
X022100Y003850D01*
X022100Y004350D01*
X022350Y004600D01*
X022100Y004850D01*
X022100Y005350D01*
X022350Y005600D01*
X022350Y004600D02*
X022850Y004600D01*
X022850Y002600D02*
X022350Y002600D01*
X007600Y022150D02*
X006600Y022150D01*
X006583Y022152D01*
X006566Y022156D01*
X006550Y022163D01*
X006536Y022173D01*
X006523Y022186D01*
X006513Y022200D01*
X006506Y022216D01*
X006502Y022233D01*
X006500Y022250D01*
X006500Y024950D01*
X006502Y024967D01*
X006506Y024984D01*
X006513Y025000D01*
X006523Y025014D01*
X006536Y025027D01*
X006550Y025037D01*
X006566Y025044D01*
X006583Y025048D01*
X006600Y025050D01*
X007600Y025050D01*
X007617Y025048D01*
X007634Y025044D01*
X007650Y025037D01*
X007664Y025027D01*
X007677Y025014D01*
X007687Y025000D01*
X007694Y024984D01*
X007698Y024967D01*
X007700Y024950D01*
X007700Y022250D01*
X007698Y022233D01*
X007694Y022216D01*
X007687Y022200D01*
X007677Y022186D01*
X007664Y022173D01*
X007650Y022163D01*
X007634Y022156D01*
X007617Y022152D01*
X007600Y022150D01*
X007100Y023000D02*
X007100Y023470D01*
X007100Y023720D02*
X007100Y024200D01*
X007100Y026500D02*
X007050Y026500D01*
X007100Y026500D02*
X007100Y026700D01*
X007050Y026700D01*
X006150Y026700D02*
X006100Y026700D01*
X006100Y026500D01*
X006150Y026500D01*
X004700Y024950D02*
X004700Y022250D01*
X004698Y022233D01*
X004694Y022216D01*
X004687Y022200D01*
X004677Y022186D01*
X004664Y022173D01*
X004650Y022163D01*
X004634Y022156D01*
X004617Y022152D01*
X004600Y022150D01*
X003600Y022150D01*
X003583Y022152D01*
X003566Y022156D01*
X003550Y022163D01*
X003536Y022173D01*
X003523Y022186D01*
X003513Y022200D01*
X003506Y022216D01*
X003502Y022233D01*
X003500Y022250D01*
X003500Y024950D01*
X003502Y024967D01*
X003506Y024984D01*
X003513Y025000D01*
X003523Y025014D01*
X003536Y025027D01*
X003550Y025037D01*
X003566Y025044D01*
X003583Y025048D01*
X003600Y025050D01*
X004600Y025050D01*
X004617Y025048D01*
X004634Y025044D01*
X004650Y025037D01*
X004664Y025027D01*
X004677Y025014D01*
X004687Y025000D01*
X004694Y024984D01*
X004698Y024967D01*
X004700Y024950D01*
X004100Y024200D02*
X004100Y023720D01*
X004100Y023470D02*
X004100Y023000D01*
X003600Y020950D02*
X003650Y020900D01*
X004550Y020900D01*
X004600Y020950D01*
X004700Y020950D01*
X004717Y020948D01*
X004734Y020944D01*
X004750Y020937D01*
X004764Y020927D01*
X004777Y020914D01*
X004787Y020900D01*
X004794Y020884D01*
X004798Y020867D01*
X004800Y020850D01*
X004800Y020350D02*
X004798Y020333D01*
X004794Y020316D01*
X004787Y020300D01*
X004777Y020286D01*
X004764Y020273D01*
X004750Y020263D01*
X004734Y020256D01*
X004717Y020252D01*
X004700Y020250D01*
X004600Y020250D01*
X004550Y020300D01*
X003650Y020300D01*
X003600Y020250D01*
X003500Y020250D01*
X003483Y020252D01*
X003466Y020256D01*
X003450Y020263D01*
X003436Y020273D01*
X003423Y020286D01*
X003413Y020300D01*
X003406Y020316D01*
X003402Y020333D01*
X003400Y020350D01*
X003400Y020850D02*
X003402Y020867D01*
X003406Y020884D01*
X003413Y020900D01*
X003423Y020914D01*
X003436Y020927D01*
X003450Y020937D01*
X003466Y020944D01*
X003483Y020948D01*
X003500Y020950D01*
X003600Y020950D01*
X002100Y021000D02*
X002100Y020200D01*
X002000Y020100D01*
X002100Y020000D01*
X002100Y019200D01*
X002000Y019100D01*
X002100Y019000D01*
X002100Y018200D01*
X002000Y018100D01*
X002100Y018000D01*
X002100Y017200D01*
X002000Y017100D01*
X002100Y017000D01*
X002100Y016200D01*
X002000Y016100D01*
X002100Y016000D01*
X002100Y015200D01*
X002000Y015100D01*
X002100Y015000D01*
X002100Y014100D01*
X001100Y014100D01*
X001100Y015000D01*
X001200Y015100D01*
X001100Y015200D01*
X001100Y016000D01*
X001200Y016100D01*
X001100Y016200D01*
X001100Y017000D01*
X001200Y017100D01*
X001100Y017200D01*
X001100Y018000D01*
X001200Y018100D01*
X001100Y018200D01*
X001100Y019000D01*
X001200Y019100D01*
X001100Y019200D01*
X001100Y020000D01*
X001200Y020100D01*
X001100Y020200D01*
X001100Y021000D01*
X001200Y021100D01*
X001100Y021200D01*
X001100Y022000D01*
X001200Y022100D01*
X001100Y022200D01*
X001100Y023000D01*
X001200Y023100D01*
X001100Y023200D01*
X001100Y024000D01*
X001200Y024100D01*
X001100Y024200D01*
X001100Y025000D01*
X001200Y025100D01*
X001100Y025200D01*
X001100Y026100D01*
X002100Y026100D01*
X002100Y025200D01*
X002000Y025100D01*
X002100Y025000D01*
X002100Y024200D01*
X002000Y024100D01*
X002100Y024000D01*
X002100Y023200D01*
X002000Y023100D01*
X002100Y023000D01*
X002100Y022200D01*
X002000Y022100D01*
X002100Y022000D01*
X002100Y021200D01*
X002000Y021100D01*
X002100Y021000D01*
X003500Y018950D02*
X003600Y018950D01*
X003650Y018900D01*
X004550Y018900D01*
X004600Y018950D01*
X004700Y018950D01*
X004717Y018948D01*
X004734Y018944D01*
X004750Y018937D01*
X004764Y018927D01*
X004777Y018914D01*
X004787Y018900D01*
X004794Y018884D01*
X004798Y018867D01*
X004800Y018850D01*
X004800Y018350D02*
X004798Y018333D01*
X004794Y018316D01*
X004787Y018300D01*
X004777Y018286D01*
X004764Y018273D01*
X004750Y018263D01*
X004734Y018256D01*
X004717Y018252D01*
X004700Y018250D01*
X004600Y018250D01*
X004550Y018300D01*
X003650Y018300D01*
X003600Y018250D01*
X003500Y018250D01*
X003483Y018252D01*
X003466Y018256D01*
X003450Y018263D01*
X003436Y018273D01*
X003423Y018286D01*
X003413Y018300D01*
X003406Y018316D01*
X003402Y018333D01*
X003400Y018350D01*
X003400Y018850D02*
X003402Y018867D01*
X003406Y018884D01*
X003413Y018900D01*
X003423Y018914D01*
X003436Y018927D01*
X003450Y018937D01*
X003466Y018944D01*
X003483Y018948D01*
X003500Y018950D01*
X003500Y016950D02*
X003600Y016950D01*
X003650Y016900D01*
X004550Y016900D01*
X004600Y016950D01*
X004700Y016950D01*
X004717Y016948D01*
X004734Y016944D01*
X004750Y016937D01*
X004764Y016927D01*
X004777Y016914D01*
X004787Y016900D01*
X004794Y016884D01*
X004798Y016867D01*
X004800Y016850D01*
X004800Y016350D02*
X004798Y016333D01*
X004794Y016316D01*
X004787Y016300D01*
X004777Y016286D01*
X004764Y016273D01*
X004750Y016263D01*
X004734Y016256D01*
X004717Y016252D01*
X004700Y016250D01*
X004600Y016250D01*
X004550Y016300D01*
X003650Y016300D01*
X003600Y016250D01*
X003500Y016250D01*
X003483Y016252D01*
X003466Y016256D01*
X003450Y016263D01*
X003436Y016273D01*
X003423Y016286D01*
X003413Y016300D01*
X003406Y016316D01*
X003402Y016333D01*
X003400Y016350D01*
X003400Y016850D02*
X003402Y016867D01*
X003406Y016884D01*
X003413Y016900D01*
X003423Y016914D01*
X003436Y016927D01*
X003450Y016937D01*
X003466Y016944D01*
X003483Y016948D01*
X003500Y016950D01*
X003500Y014950D02*
X003600Y014950D01*
X003650Y014900D01*
X004550Y014900D01*
X004600Y014950D01*
X004700Y014950D01*
X004717Y014948D01*
X004734Y014944D01*
X004750Y014937D01*
X004764Y014927D01*
X004777Y014914D01*
X004787Y014900D01*
X004794Y014884D01*
X004798Y014867D01*
X004800Y014850D01*
X004800Y014350D02*
X004798Y014333D01*
X004794Y014316D01*
X004787Y014300D01*
X004777Y014286D01*
X004764Y014273D01*
X004750Y014263D01*
X004734Y014256D01*
X004717Y014252D01*
X004700Y014250D01*
X004600Y014250D01*
X004550Y014300D01*
X003650Y014300D01*
X003600Y014250D01*
X003500Y014250D01*
X003483Y014252D01*
X003466Y014256D01*
X003450Y014263D01*
X003436Y014273D01*
X003423Y014286D01*
X003413Y014300D01*
X003406Y014316D01*
X003402Y014333D01*
X003400Y014350D01*
X003400Y014850D02*
X003402Y014867D01*
X003406Y014884D01*
X003413Y014900D01*
X003423Y014914D01*
X003436Y014927D01*
X003450Y014937D01*
X003466Y014944D01*
X003483Y014948D01*
X003500Y014950D01*
X010600Y023050D02*
X015500Y023050D01*
X015500Y023400D01*
X016100Y023400D01*
X016100Y023050D01*
X016850Y023050D01*
X016850Y027150D01*
X016100Y027150D01*
X016100Y026800D01*
X015500Y026800D01*
X015500Y027150D01*
X010600Y027150D01*
X010600Y023050D01*
X014790Y025100D02*
X014792Y025153D01*
X014798Y025206D01*
X014808Y025258D01*
X014822Y025309D01*
X014839Y025359D01*
X014860Y025408D01*
X014885Y025455D01*
X014913Y025500D01*
X014945Y025543D01*
X014980Y025583D01*
X015017Y025620D01*
X015057Y025655D01*
X015100Y025687D01*
X015145Y025715D01*
X015192Y025740D01*
X015241Y025761D01*
X015291Y025778D01*
X015342Y025792D01*
X015394Y025802D01*
X015447Y025808D01*
X015500Y025810D01*
X015553Y025808D01*
X015606Y025802D01*
X015658Y025792D01*
X015709Y025778D01*
X015759Y025761D01*
X015808Y025740D01*
X015855Y025715D01*
X015900Y025687D01*
X015943Y025655D01*
X015983Y025620D01*
X016020Y025583D01*
X016055Y025543D01*
X016087Y025500D01*
X016115Y025455D01*
X016140Y025408D01*
X016161Y025359D01*
X016178Y025309D01*
X016192Y025258D01*
X016202Y025206D01*
X016208Y025153D01*
X016210Y025100D01*
X016208Y025047D01*
X016202Y024994D01*
X016192Y024942D01*
X016178Y024891D01*
X016161Y024841D01*
X016140Y024792D01*
X016115Y024745D01*
X016087Y024700D01*
X016055Y024657D01*
X016020Y024617D01*
X015983Y024580D01*
X015943Y024545D01*
X015900Y024513D01*
X015855Y024485D01*
X015808Y024460D01*
X015759Y024439D01*
X015709Y024422D01*
X015658Y024408D01*
X015606Y024398D01*
X015553Y024392D01*
X015500Y024390D01*
X015447Y024392D01*
X015394Y024398D01*
X015342Y024408D01*
X015291Y024422D01*
X015241Y024439D01*
X015192Y024460D01*
X015145Y024485D01*
X015100Y024513D01*
X015057Y024545D01*
X015017Y024580D01*
X014980Y024617D01*
X014945Y024657D01*
X014913Y024700D01*
X014885Y024745D01*
X014860Y024792D01*
X014839Y024841D01*
X014822Y024891D01*
X014808Y024942D01*
X014798Y024994D01*
X014792Y025047D01*
X014790Y025100D01*
X018630Y024980D02*
X018864Y024980D01*
X019097Y024630D02*
X018630Y024630D01*
X018630Y025331D01*
X019097Y025331D01*
X019330Y025214D02*
X019330Y024747D01*
X019447Y024630D01*
X019680Y024630D01*
X019797Y024747D01*
X020030Y024630D02*
X020497Y024630D01*
X020263Y024980D02*
X020030Y024980D01*
X019797Y025214D02*
X019680Y025331D01*
X019447Y025331D01*
X019330Y025214D01*
X020030Y025331D02*
X020030Y024630D01*
X020030Y025331D02*
X020497Y025331D01*
X021429Y025214D02*
X021546Y025331D01*
X021779Y025331D01*
X021896Y025214D01*
X021896Y025097D01*
X021779Y024980D01*
X021896Y024864D01*
X021896Y024747D01*
X021779Y024630D01*
X021546Y024630D01*
X021429Y024747D01*
X021663Y024980D02*
X021779Y024980D01*
X022129Y024980D02*
X022129Y024747D01*
X022246Y024630D01*
X022479Y024630D01*
X022596Y024747D01*
X022596Y024864D01*
X022479Y024980D01*
X022129Y024980D01*
X022363Y025214D01*
X022596Y025331D01*
X022829Y025214D02*
X022946Y025331D01*
X023179Y025331D01*
X023296Y025214D01*
X023296Y025097D01*
X022829Y024630D01*
X023296Y024630D01*
X021600Y022700D02*
X021550Y022700D01*
X021600Y022700D02*
X021600Y022500D01*
X021550Y022500D01*
X020650Y022500D02*
X020600Y022500D01*
X020600Y022700D01*
X020650Y022700D01*
D13*
X020402Y026140D02*
X020402Y027061D01*
X020709Y026754D01*
X021016Y027061D01*
X021016Y026140D01*
X020095Y026140D02*
X020095Y026754D01*
X019789Y027061D01*
X019482Y026754D01*
X019482Y026140D01*
X019175Y026140D02*
X018561Y026140D01*
X018561Y027061D01*
X019175Y027061D01*
X019482Y026600D02*
X020095Y026600D01*
X018868Y026600D02*
X018561Y026600D01*
X018254Y027061D02*
X017640Y027061D01*
X017947Y027061D02*
X017947Y026140D01*
X022244Y026140D02*
X022858Y026754D01*
X022858Y026907D01*
X022704Y027061D01*
X022397Y027061D01*
X022244Y026907D01*
X022244Y026140D02*
X022858Y026140D01*
X023165Y026293D02*
X023779Y026907D01*
X023779Y026293D01*
X023625Y026140D01*
X023318Y026140D01*
X023165Y026293D01*
X023165Y026907D01*
X023318Y027061D01*
X023625Y027061D01*
X023779Y026907D01*
D14*
X019100Y005550D02*
X019100Y005050D01*
X018850Y005300D02*
X019350Y005300D01*
D15*
X022725Y008804D02*
X023175Y008804D01*
X023175Y008654D02*
X023175Y008954D01*
X023175Y009115D02*
X022875Y009415D01*
X022800Y009415D01*
X022725Y009340D01*
X022725Y009190D01*
X022800Y009115D01*
X022725Y008804D02*
X022875Y008654D01*
X023175Y009115D02*
X023175Y009415D01*
X023175Y019865D02*
X023175Y020165D01*
X023175Y020015D02*
X022725Y020015D01*
X022875Y019865D01*
X000975Y014725D02*
X000975Y014425D01*
X000975Y014575D02*
X000525Y014575D01*
X000675Y014425D01*
X000675Y012936D02*
X000600Y012936D01*
X000525Y012861D01*
X000525Y012710D01*
X000600Y012635D01*
X000675Y012936D02*
X000975Y012635D01*
X000975Y012936D01*
X000975Y012475D02*
X000975Y012175D01*
X000975Y012325D02*
X000525Y012325D01*
X000675Y012175D01*
X000975Y001725D02*
X000975Y001425D01*
X000975Y001575D02*
X000525Y001575D01*
X000675Y001425D01*
X000675Y025175D02*
X000525Y025325D01*
X000975Y025325D01*
X000975Y025175D02*
X000975Y025475D01*
X000975Y025635D02*
X000675Y025936D01*
X000600Y025936D01*
X000525Y025861D01*
X000525Y025710D01*
X000600Y025635D01*
X000975Y025635D02*
X000975Y025936D01*
D16*
X010850Y026900D02*
X010850Y023300D01*
X014100Y023300D01*
X014100Y026900D01*
X010850Y026900D01*
D17*
X009375Y026100D03*
X009375Y025100D03*
X009375Y024100D03*
D18*
X010050Y024100D03*
X010050Y025100D03*
X010050Y026100D03*
D19*
X007350Y023720D02*
X007100Y023720D01*
X006850Y023720D01*
X006850Y023470D02*
X007100Y023470D01*
X007350Y023470D01*
X004350Y023470D02*
X004100Y023470D01*
X003850Y023470D01*
X003850Y023720D02*
X004100Y023720D01*
X004350Y023720D01*
M02*
